{"glyphs":{"0":{"ha":861,"x_min":0,"x_max":0,"o":"m 431 1064 b 40 524 207 1064 40 836 b 431 -17 40 211 207 -17 b 821 524 654 -17 821 211 b 431 1064 821 836 654 1064 z m 253 524 b 431 861 253 714 322 861 b 608 524 539 861 608 714 b 431 186 608 333 539 186 b 253 524 322 186 253 333 z "},"1":{"ha":861,"x_min":0,"x_max":0,"o":"m 633 1047 l 221 1047 l 94 863 l 411 863 l 411 0 l 633 0 z "},"2":{"ha":861,"x_min":0,"x_max":0,"o":"m 282 708 b 424 853 285 785 336 853 b 551 717 504 853 551 792 b 417 461 551 633 493 557 l 42 0 l 797 0 l 797 186 l 444 186 l 578 349 b 778 732 664 454 778 586 b 421 1064 778 926 642 1064 b 49 708 207 1064 61 904 z "},"3":{"ha":861,"x_min":0,"x_max":0,"o":"m 432 464 b 593 319 522 464 593 413 b 435 167 593 229 525 167 b 271 343 333 167 269 244 l 53 343 b 436 -17 54 133 206 -17 b 806 310 653 -17 806 126 b 653 556 806 426 743 508 b 765 765 710 594 765 669 b 444 1064 765 942 640 1064 b 99 732 235 1064 106 911 l 306 732 b 439 874 307 815 358 874 b 558 754 510 874 558 822 b 431 632 558 678 499 632 l 382 632 l 382 464 z "},"4":{"ha":861,"x_min":0,"x_max":0,"o":"m 704 0 l 704 250 l 847 250 l 847 428 l 704 428 l 704 1047 l 468 1047 l 17 419 l 17 250 l 492 250 l 492 0 z m 233 428 l 492 786 l 492 428 z "},"5":{"ha":861,"x_min":0,"x_max":0,"o":"m 363 179 b 100 338 256 179 157 243 l 47 125 b 378 -17 101 47 226 -17 b 776 361 606 -17 776 154 b 432 704 776 546 649 704 b 374 700 413 704 393 703 l 414 861 l 738 861 l 738 1047 l 264 1047 l 132 476 b 343 536 204 515 274 536 b 561 357 475 536 561 460 b 363 179 561 243 465 179 z "},"6":{"ha":861,"x_min":0,"x_max":0,"o":"m 813 361 b 467 722 813 561 665 715 l 715 1047 l 463 1047 l 178 668 b 49 361 88 547 49 464 b 431 -17 49 149 217 -17 b 813 361 647 -17 813 149 z m 432 542 b 610 361 531 542 610 463 b 432 179 610 260 531 179 b 254 361 332 179 254 260 b 432 542 254 463 332 542 z "},"7":{"ha":861,"x_min":0,"x_max":0,"o":"m 865 1047 l 42 1047 l 42 861 l 528 861 l 47 0 l 289 0 z "},"8":{"ha":861,"x_min":0,"x_max":0,"o":"m 431 1064 b 111 776 260 1064 111 946 b 229 557 111 676 164 599 b 57 301 150 522 57 431 b 431 -17 57 115 224 -17 b 804 301 638 -17 804 115 b 632 557 804 431 711 522 b 750 776 697 599 750 676 b 431 1064 750 946 601 1064 z m 431 651 b 308 772 363 651 308 701 b 431 894 308 843 363 894 b 553 772 499 894 553 843 b 431 651 553 701 499 651 z m 431 165 b 276 315 344 165 276 228 b 431 465 276 403 344 465 b 585 315 517 465 585 403 b 431 165 585 228 517 165 z "},"9":{"ha":861,"x_min":0,"x_max":0,"o":"m 49 686 b 394 325 49 486 196 332 l 146 0 l 399 0 l 683 379 b 813 686 774 500 813 583 b 431 1064 813 899 644 1064 b 49 686 214 1064 49 899 z m 429 506 b 251 686 331 506 251 585 b 429 868 251 788 331 868 b 607 686 529 868 607 788 b 429 506 607 585 529 506 z "}," ":{"ha":861,"x_min":0,"x_max":0,"o":""}," ":{"ha":0,"x_min":0,"x_max":0,"o":""}," ":{"ha":861,"x_min":0,"x_max":0,"o":""},"A":{"ha":861,"x_min":0,"x_max":0,"o":"m 647 0 l 857 0 l 431 1088 l 4 0 l 219 0 l 281 167 l 586 167 z m 435 582 l 529 322 l 339 322 z "},"B":{"ha":861,"x_min":0,"x_max":0,"o":"m 618 554 b 750 767 683 589 750 660 b 396 1047 750 935 622 1047 l 79 1047 l 79 0 l 446 0 b 814 301 679 0 814 122 b 618 554 814 425 733 521 z m 297 864 l 383 864 b 531 738 471 864 531 819 b 383 611 531 656 471 611 l 297 611 z m 297 446 l 432 446 b 588 315 531 446 588 393 b 432 183 588 236 531 183 l 297 183 z "},"C":{"ha":861,"x_min":0,"x_max":0,"o":"m 263 524 b 569 850 263 710 396 850 b 803 750 667 850 750 810 l 803 1006 b 563 1064 732 1044 649 1064 b 39 524 272 1064 39 821 b 563 -17 39 226 272 -17 b 803 42 649 -17 732 3 l 803 297 b 569 197 750 238 667 197 b 263 524 396 197 263 338 z "},"D":{"ha":861,"x_min":0,"x_max":0,"o":"m 69 0 l 328 0 b 825 524 625 0 825 221 b 328 1047 825 826 625 1047 l 69 1047 z m 610 524 b 321 186 610 332 496 186 l 293 186 l 293 861 l 322 861 b 610 524 496 861 610 715 z "},"E":{"ha":861,"x_min":0,"x_max":0,"o":"m 108 0 l 761 0 l 761 186 l 328 186 l 328 447 l 753 447 l 753 633 l 328 633 l 328 861 l 761 861 l 761 1047 l 108 1047 z "},"F":{"ha":861,"x_min":0,"x_max":0,"o":"m 113 0 l 332 0 l 332 439 l 749 439 l 749 625 l 332 625 l 332 861 l 757 861 l 757 1047 l 113 1047 z "},"G":{"ha":861,"x_min":0,"x_max":0,"o":"m 832 563 l 458 563 l 458 376 l 622 376 b 456 186 601 260 550 186 b 256 524 338 186 256 338 b 456 853 256 711 342 853 b 607 689 533 853 582 789 l 796 803 b 450 1064 735 971 607 1064 b 38 524 221 1064 38 822 b 449 -17 38 226 219 -17 b 832 563 679 -17 851 201 z "},"H":{"ha":861,"x_min":0,"x_max":0,"o":"m 568 0 l 790 0 l 790 1047 l 568 1047 l 568 638 l 293 638 l 293 1047 l 69 1047 l 69 0 l 293 0 l 293 451 l 568 451 z "},"I":{"ha":861,"x_min":0,"x_max":0,"o":"m 46 186 l 46 0 l 815 0 l 815 186 l 542 186 l 542 861 l 815 861 l 815 1047 l 46 1047 l 46 861 l 319 861 l 319 186 z "},"J":{"ha":861,"x_min":0,"x_max":0,"o":"m 267 376 l 39 376 b 424 -17 39 143 193 -17 b 806 360 640 -17 806 131 l 806 1047 l 582 1047 l 582 376 b 424 185 582 247 519 185 b 267 376 332 185 267 247 z "},"K":{"ha":861,"x_min":0,"x_max":0,"o":"m 299 1047 l 74 1047 l 74 0 l 299 0 l 299 357 l 357 429 l 608 0 l 860 0 l 511 621 l 851 1047 l 594 1047 l 299 660 z "},"L":{"ha":861,"x_min":0,"x_max":0,"o":"m 106 0 l 804 0 l 804 186 l 329 186 l 329 1047 l 106 1047 z "},"M":{"ha":861,"x_min":0,"x_max":0,"o":"m 429 -32 l 569 476 l 656 0 l 861 0 l 636 1088 l 431 488 l 225 1088 l 0 0 l 203 0 l 289 476 z "},"N":{"ha":861,"x_min":0,"x_max":0,"o":"m 69 1088 l 69 0 l 276 0 l 276 564 l 792 -40 l 792 1047 l 585 1047 l 585 482 z "},"O":{"ha":861,"x_min":0,"x_max":0,"o":"m 36 524 b 431 -17 36 229 197 -17 b 824 524 664 -17 824 229 b 431 1064 824 819 664 1064 b 36 524 197 1064 36 819 z m 615 524 b 431 192 615 332 540 192 b 244 524 319 192 244 332 b 431 856 244 717 319 856 b 615 524 540 856 615 717 z "},"P":{"ha":861,"x_min":0,"x_max":0,"o":"m 310 388 l 426 388 b 821 717 658 388 821 511 b 426 1047 821 924 658 1047 l 88 1047 l 88 0 l 310 0 z m 310 864 l 422 864 b 594 717 524 864 594 814 b 422 571 594 619 524 571 l 310 571 z "},"Q":{"ha":861,"x_min":0,"x_max":0,"o":"m 36 524 b 431 -17 36 229 197 -17 b 619 49 499 -17 564 7 l 653 0 l 875 0 l 742 193 b 824 524 793 285 824 400 b 431 1065 824 819 664 1065 b 36 524 197 1065 36 819 z m 619 524 b 607 389 619 475 615 431 l 560 457 l 336 457 l 510 206 b 431 178 486 188 460 178 b 244 524 319 178 244 329 b 431 857 244 717 319 857 b 619 524 540 857 619 717 z "},"R":{"ha":861,"x_min":0,"x_max":0,"o":"m 304 392 l 331 392 l 583 0 l 842 0 l 561 417 b 783 718 697 463 783 567 b 390 1047 783 924 621 1047 l 83 1047 l 83 0 l 304 0 z m 304 864 l 386 864 b 558 718 488 864 558 814 b 386 569 558 619 488 569 l 304 569 z "},"S":{"ha":861,"x_min":0,"x_max":0,"o":"m 813 318 b 317 761 813 689 317 581 b 450 878 317 838 378 878 b 642 757 532 878 592 832 l 782 903 b 454 1065 706 1003 597 1065 b 101 742 249 1065 101 925 b 594 303 101 381 594 506 b 435 174 594 222 518 174 b 179 346 324 174 243 240 l 24 210 b 431 -17 99 72 256 -17 b 813 318 643 -17 813 124 z "},"T":{"ha":861,"x_min":0,"x_max":0,"o":"m 838 861 l 838 1047 l 24 1047 l 24 861 l 319 861 l 319 0 l 542 0 l 542 861 z "},"U":{"ha":861,"x_min":0,"x_max":0,"o":"m 431 183 b 274 378 336 183 274 250 l 274 1047 l 51 1047 l 51 378 b 431 -17 51 125 217 -17 b 810 378 644 -17 810 125 l 810 1047 l 588 1047 l 588 378 b 431 183 588 250 525 183 z "},"V":{"ha":861,"x_min":0,"x_max":0,"o":"m 435 511 l 239 1047 l 4 1047 l 431 -40 l 857 1047 l 629 1047 z "},"W":{"ha":861,"x_min":0,"x_max":0,"o":"m 432 1075 l 300 568 l 204 1047 l 0 1047 l 247 -40 l 431 544 l 614 -40 l 861 1047 l 660 1047 l 564 568 z "},"X":{"ha":861,"x_min":0,"x_max":0,"o":"m 253 0 l 433 328 l 606 0 l 850 0 l 560 547 l 839 1047 l 606 1047 l 446 757 l 294 1047 l 50 1047 l 319 538 l 19 0 z "},"Y":{"ha":861,"x_min":0,"x_max":0,"o":"m 542 0 l 542 439 l 854 1047 l 611 1047 l 431 692 l 251 1047 l 7 1047 l 318 439 l 318 0 z "},"Z":{"ha":861,"x_min":0,"x_max":0,"o":"m 485 861 l 18 0 l 824 0 l 824 186 l 365 186 l 833 1047 l 58 1047 l 58 861 z "},"Á":{"ha":861,"x_min":0,"x_max":0,"o":"m 308 1110 l 531 1110 l 754 1376 l 532 1376 z m 647 0 l 857 0 l 431 1088 l 4 0 l 219 0 l 281 167 l 586 167 z m 435 582 l 529 322 l 339 322 z "},"Ă":{"ha":861,"x_min":0,"x_max":0,"o":"m 431 1104 b 690 1364 568 1104 688 1203 l 519 1364 b 431 1258 518 1300 486 1258 b 340 1364 374 1258 343 1300 l 171 1364 b 431 1104 174 1203 293 1104 z m 647 0 l 857 0 l 431 1088 l 4 0 l 219 0 l 281 167 l 586 167 z m 435 582 l 529 322 l 339 322 z "},"Â":{"ha":861,"x_min":0,"x_max":0,"o":"m 431 1407 l 122 1104 l 325 1104 l 431 1211 l 536 1104 l 739 1104 z m 647 0 l 857 0 l 431 1088 l 4 0 l 219 0 l 281 167 l 586 167 z m 435 582 l 529 322 l 339 322 z "},"Ä":{"ha":861,"x_min":0,"x_max":0,"o":"m 256 1125 b 389 1257 328 1125 389 1183 b 256 1390 389 1331 328 1390 b 122 1257 183 1390 122 1331 b 256 1125 122 1183 183 1125 z m 606 1125 b 739 1257 678 1125 739 1183 b 606 1390 739 1331 678 1390 b 472 1257 533 1390 472 1331 b 606 1125 472 1183 533 1125 z m 647 0 l 857 0 l 431 1088 l 4 0 l 219 0 l 281 167 l 586 167 z m 435 582 l 529 322 l 339 322 z "},"À":{"ha":861,"x_min":0,"x_max":0,"o":"m 551 1110 l 328 1376 l 106 1376 l 329 1110 z m 647 0 l 857 0 l 431 1088 l 4 0 l 219 0 l 281 167 l 586 167 z m 435 582 l 529 322 l 339 322 z "},"Ā":{"ha":861,"x_min":0,"x_max":0,"o":"m 189 1143 l 672 1143 l 672 1311 l 189 1311 z m 647 0 l 857 0 l 431 1088 l 4 0 l 219 0 l 281 167 l 586 167 z m 435 582 l 529 322 l 339 322 z "},"Ą":{"ha":861,"x_min":0,"x_max":0,"o":"m 900 -168 l 757 -168 b 714 -215 753 -197 738 -215 b 675 -174 693 -215 675 -200 b 706 -112 675 -153 685 -135 l 811 0 l 857 0 l 431 1088 l 4 0 l 219 0 l 281 167 l 586 167 l 646 3 l 597 -50 b 525 -204 547 -99 525 -150 b 701 -364 525 -301 599 -364 b 900 -168 817 -364 890 -285 z m 435 582 l 529 322 l 339 322 z "},"Å":{"ha":861,"x_min":0,"x_max":0,"o":"m 219 0 l 281 167 l 586 167 l 647 0 l 857 0 l 486 944 b 658 1164 586 968 658 1056 b 429 1392 658 1292 557 1392 b 201 1164 303 1392 201 1292 b 375 944 201 1056 275 968 l 4 0 z m 429 1089 b 354 1164 388 1089 354 1122 b 429 1239 354 1207 388 1239 b 504 1164 471 1239 504 1207 b 429 1089 504 1122 471 1089 z m 435 582 l 529 322 l 339 322 z "},"Ã":{"ha":861,"x_min":0,"x_max":0,"o":"m 575 1369 b 519 1292 575 1318 551 1292 b 313 1375 463 1292 415 1375 b 132 1129 199 1375 132 1265 l 286 1129 b 342 1208 286 1181 311 1208 b 549 1124 399 1208 446 1124 b 729 1369 663 1124 729 1233 z m 647 0 l 857 0 l 431 1088 l 4 0 l 219 0 l 281 167 l 586 167 z m 435 582 l 529 322 l 339 322 z "},"Æ":{"ha":861,"x_min":0,"x_max":0,"o":"m 451 0 l 850 0 l 850 186 l 635 186 l 635 447 l 844 447 l 844 633 l 635 633 l 635 861 l 850 861 l 850 1047 l 307 1047 l 3 0 l 208 0 l 275 239 l 451 239 z m 324 414 l 451 872 l 451 414 z "},"Ǽ":{"ha":861,"x_min":0,"x_max":0,"o":"m 433 1110 l 656 1110 l 879 1376 l 657 1376 z m 451 0 l 850 0 l 850 186 l 635 186 l 635 447 l 844 447 l 844 633 l 635 633 l 635 861 l 850 861 l 850 1047 l 307 1047 l 3 0 l 208 0 l 275 239 l 451 239 z m 324 414 l 451 872 l 451 414 z "},"Ć":{"ha":861,"x_min":0,"x_max":0,"o":"m 414 1110 l 636 1110 l 860 1376 l 638 1376 z m 263 524 b 569 850 263 710 396 850 b 803 750 667 850 750 810 l 803 1006 b 563 1064 732 1044 649 1064 b 39 524 272 1064 39 821 b 563 -17 39 226 272 -17 b 803 42 649 -17 732 3 l 803 297 b 569 197 750 238 667 197 b 263 524 396 197 263 338 z "},"Č":{"ha":861,"x_min":0,"x_max":0,"o":"m 536 1103 l 844 1406 l 642 1406 l 536 1299 l 431 1406 l 228 1406 z m 263 524 b 569 850 263 710 396 850 b 803 750 667 850 750 810 l 803 1006 b 563 1064 732 1044 649 1064 b 39 524 272 1064 39 821 b 563 -17 39 226 272 -17 b 803 42 649 -17 732 3 l 803 297 b 569 197 750 238 667 197 b 263 524 396 197 263 338 z "},"Ç":{"ha":861,"x_min":0,"x_max":0,"o":"m 263 524 b 569 850 263 710 396 850 b 803 750 667 850 750 810 l 803 1006 b 563 1064 732 1044 649 1064 b 39 524 272 1064 39 821 b 563 -17 39 226 272 -17 b 803 42 649 -17 732 3 l 803 297 b 569 197 750 238 667 197 b 263 524 396 197 263 338 z m 256 -349 l 472 -349 l 650 -100 l 433 -100 z "},"Ĉ":{"ha":861,"x_min":0,"x_max":0,"o":"m 536 1407 l 228 1104 l 431 1104 l 536 1211 l 642 1104 l 844 1104 z m 263 524 b 569 850 263 710 396 850 b 803 750 667 850 750 810 l 803 1006 b 563 1064 732 1044 649 1064 b 39 524 272 1064 39 821 b 563 -17 39 226 272 -17 b 803 42 649 -17 732 3 l 803 297 b 569 197 750 238 667 197 b 263 524 396 197 263 338 z "},"Ċ":{"ha":861,"x_min":0,"x_max":0,"o":"m 535 1124 b 674 1261 611 1124 674 1185 b 535 1399 674 1338 611 1399 b 396 1261 460 1399 396 1338 b 535 1124 396 1185 460 1124 z m 263 524 b 569 850 263 710 396 850 b 803 750 667 850 750 810 l 803 1006 b 563 1064 732 1044 649 1064 b 39 524 272 1064 39 821 b 563 -17 39 226 272 -17 b 803 42 649 -17 732 3 l 803 297 b 569 197 750 238 667 197 b 263 524 396 197 263 338 z "},"Ď":{"ha":861,"x_min":0,"x_max":0,"o":"m 435 1103 l 743 1406 l 540 1406 l 435 1299 l 329 1406 l 126 1406 z m 69 0 l 328 0 b 825 524 625 0 825 221 b 328 1047 825 826 625 1047 l 69 1047 z m 610 524 b 321 186 610 332 496 186 l 293 186 l 293 861 l 322 861 b 610 524 496 861 610 715 z "},"Đ":{"ha":861,"x_min":0,"x_max":0,"o":"m 69 0 l 328 0 b 825 524 625 0 825 221 b 328 1047 825 826 625 1047 l 69 1047 l 69 633 l 0 633 l 0 447 l 69 447 z m 610 524 b 321 186 610 332 496 186 l 293 186 l 293 447 l 454 447 l 454 633 l 293 633 l 293 861 l 322 861 b 610 524 496 861 610 715 z "},"É":{"ha":861,"x_min":0,"x_max":0,"o":"m 318 1110 l 540 1110 l 764 1376 l 542 1376 z m 108 0 l 761 0 l 761 186 l 328 186 l 328 447 l 753 447 l 753 633 l 328 633 l 328 861 l 761 861 l 761 1047 l 108 1047 z "},"Ĕ":{"ha":861,"x_min":0,"x_max":0,"o":"m 439 1104 b 699 1364 576 1104 696 1203 l 528 1364 b 439 1258 526 1300 494 1258 b 349 1364 382 1258 351 1300 l 179 1364 b 439 1104 182 1203 301 1104 z m 108 0 l 761 0 l 761 186 l 328 186 l 328 447 l 753 447 l 753 633 l 328 633 l 328 861 l 761 861 l 761 1047 l 108 1047 z "},"Ě":{"ha":861,"x_min":0,"x_max":0,"o":"m 439 1103 l 747 1406 l 544 1406 l 439 1299 l 333 1406 l 131 1406 z m 108 0 l 761 0 l 761 186 l 328 186 l 328 447 l 753 447 l 753 633 l 328 633 l 328 861 l 761 861 l 761 1047 l 108 1047 z "},"Ê":{"ha":861,"x_min":0,"x_max":0,"o":"m 439 1407 l 131 1104 l 333 1104 l 439 1211 l 544 1104 l 747 1104 z m 108 0 l 761 0 l 761 186 l 328 186 l 328 447 l 753 447 l 753 633 l 328 633 l 328 861 l 761 861 l 761 1047 l 108 1047 z "},"Ë":{"ha":861,"x_min":0,"x_max":0,"o":"m 264 1125 b 397 1257 336 1125 397 1183 b 264 1390 397 1331 336 1390 b 131 1257 192 1390 131 1331 b 264 1125 131 1183 192 1125 z m 614 1125 b 747 1257 686 1125 747 1183 b 614 1390 747 1331 686 1390 b 481 1257 542 1390 481 1331 b 614 1125 481 1183 542 1125 z m 108 0 l 761 0 l 761 186 l 328 186 l 328 447 l 753 447 l 753 633 l 328 633 l 328 861 l 761 861 l 761 1047 l 108 1047 z "},"Ė":{"ha":861,"x_min":0,"x_max":0,"o":"m 439 1124 b 578 1261 515 1124 578 1185 b 439 1399 578 1338 515 1399 b 300 1261 364 1399 300 1338 b 439 1124 300 1185 364 1124 z m 108 0 l 761 0 l 761 186 l 328 186 l 328 447 l 753 447 l 753 633 l 328 633 l 328 861 l 761 861 l 761 1047 l 108 1047 z "},"È":{"ha":861,"x_min":0,"x_max":0,"o":"m 561 1110 l 338 1376 l 115 1376 l 339 1110 z m 108 0 l 761 0 l 761 186 l 328 186 l 328 447 l 753 447 l 753 633 l 328 633 l 328 861 l 761 861 l 761 1047 l 108 1047 z "},"Ē":{"ha":861,"x_min":0,"x_max":0,"o":"m 197 1143 l 681 1143 l 681 1311 l 197 1311 z m 108 0 l 761 0 l 761 186 l 328 186 l 328 447 l 753 447 l 753 633 l 328 633 l 328 861 l 761 861 l 761 1047 l 108 1047 z "},"Ę":{"ha":861,"x_min":0,"x_max":0,"o":"m 108 0 l 469 0 l 422 -50 b 350 -204 372 -99 350 -150 b 526 -364 350 -301 424 -364 b 725 -168 642 -364 715 -285 l 582 -168 b 539 -215 578 -197 563 -215 b 500 -174 518 -215 500 -200 b 531 -112 500 -153 510 -135 l 636 0 l 761 0 l 761 186 l 328 186 l 328 447 l 753 447 l 753 633 l 328 633 l 328 861 l 761 861 l 761 1047 l 108 1047 z "},"Ð":{"ha":861,"x_min":0,"x_max":0,"o":"m 69 0 l 328 0 b 825 524 625 0 825 221 b 328 1047 825 826 625 1047 l 69 1047 l 69 633 l 0 633 l 0 447 l 69 447 z m 610 524 b 321 186 610 332 496 186 l 293 186 l 293 447 l 454 447 l 454 633 l 293 633 l 293 861 l 322 861 b 610 524 496 861 610 715 z "},"Ğ":{"ha":861,"x_min":0,"x_max":0,"o":"m 444 1104 b 704 1364 582 1104 701 1203 l 533 1364 b 444 1258 532 1300 500 1258 b 354 1364 388 1258 357 1300 l 185 1364 b 444 1104 188 1203 307 1104 z m 832 563 l 458 563 l 458 376 l 622 376 b 456 186 601 260 550 186 b 256 524 338 186 256 338 b 456 853 256 711 342 853 b 607 689 533 853 582 789 l 796 803 b 450 1064 735 971 607 1064 b 38 524 221 1064 38 822 b 449 -17 38 226 219 -17 b 832 563 679 -17 851 201 z "},"Ĝ":{"ha":861,"x_min":0,"x_max":0,"o":"m 444 1407 l 136 1104 l 339 1104 l 444 1211 l 550 1104 l 753 1104 z m 832 563 l 458 563 l 458 376 l 622 376 b 456 186 601 260 550 186 b 256 524 338 186 256 338 b 456 853 256 711 342 853 b 607 689 533 853 582 789 l 796 803 b 450 1064 735 971 607 1064 b 38 524 221 1064 38 822 b 449 -17 38 226 219 -17 b 832 563 679 -17 851 201 z "},"Ģ":{"ha":861,"x_min":0,"x_max":0,"o":"m 832 563 l 458 563 l 458 376 l 622 376 b 456 186 601 260 550 186 b 256 524 338 186 256 338 b 456 853 256 711 342 853 b 607 689 533 853 582 789 l 796 803 b 450 1064 735 971 607 1064 b 38 524 221 1064 38 822 b 449 -17 38 226 219 -17 b 832 563 679 -17 851 201 z m 532 -60 l 356 -60 l 356 -190 l 164 -190 l 164 -350 l 532 -350 z "},"Ġ":{"ha":861,"x_min":0,"x_max":0,"o":"m 444 1124 b 583 1261 521 1124 583 1185 b 444 1399 583 1338 521 1399 b 306 1261 369 1399 306 1338 b 444 1124 306 1185 369 1124 z m 832 563 l 458 563 l 458 376 l 622 376 b 456 186 601 260 550 186 b 256 524 338 186 256 338 b 456 853 256 711 342 853 b 607 689 533 853 582 789 l 796 803 b 450 1064 735 971 607 1064 b 38 524 221 1064 38 822 b 449 -17 38 226 219 -17 b 832 563 679 -17 851 201 z "},"Ħ":{"ha":861,"x_min":0,"x_max":0,"o":"m 568 0 l 790 0 l 790 671 l 861 671 l 861 857 l 790 857 l 790 1047 l 568 1047 l 568 857 l 293 857 l 293 1047 l 69 1047 l 69 857 l 0 857 l 0 671 l 69 671 l 69 0 l 293 0 l 293 332 l 568 332 z m 293 518 l 293 671 l 568 671 l 568 518 z "},"Ĥ":{"ha":861,"x_min":0,"x_max":0,"o":"m 431 1407 l 122 1104 l 325 1104 l 431 1211 l 536 1104 l 739 1104 z m 568 0 l 790 0 l 790 1047 l 568 1047 l 568 638 l 293 638 l 293 1047 l 69 1047 l 69 0 l 293 0 l 293 451 l 568 451 z "},"Í":{"ha":861,"x_min":0,"x_max":0,"o":"m 308 1110 l 531 1110 l 754 1376 l 532 1376 z m 46 186 l 46 0 l 815 0 l 815 186 l 542 186 l 542 861 l 815 861 l 815 1047 l 46 1047 l 46 861 l 319 861 l 319 186 z "},"Ĭ":{"ha":861,"x_min":0,"x_max":0,"o":"m 431 1104 b 690 1364 568 1104 688 1203 l 519 1364 b 431 1258 518 1300 486 1258 b 340 1364 374 1258 343 1300 l 171 1364 b 431 1104 174 1203 293 1104 z m 46 186 l 46 0 l 815 0 l 815 186 l 542 186 l 542 861 l 815 861 l 815 1047 l 46 1047 l 46 861 l 319 861 l 319 186 z "},"Î":{"ha":861,"x_min":0,"x_max":0,"o":"m 431 1407 l 122 1104 l 325 1104 l 431 1211 l 536 1104 l 739 1104 z m 46 186 l 46 0 l 815 0 l 815 186 l 542 186 l 542 861 l 815 861 l 815 1047 l 46 1047 l 46 861 l 319 861 l 319 186 z "},"Ï":{"ha":861,"x_min":0,"x_max":0,"o":"m 256 1125 b 389 1257 328 1125 389 1183 b 256 1390 389 1331 328 1390 b 122 1257 183 1390 122 1331 b 256 1125 122 1183 183 1125 z m 606 1125 b 739 1257 678 1125 739 1183 b 606 1390 739 1331 678 1390 b 472 1257 533 1390 472 1331 b 606 1125 472 1183 533 1125 z m 46 186 l 46 0 l 815 0 l 815 186 l 542 186 l 542 861 l 815 861 l 815 1047 l 46 1047 l 46 861 l 319 861 l 319 186 z "},"İ":{"ha":861,"x_min":0,"x_max":0,"o":"m 431 1124 b 569 1261 507 1124 569 1185 b 431 1399 569 1338 507 1399 b 292 1261 356 1399 292 1338 b 431 1124 292 1185 356 1124 z m 46 186 l 46 0 l 815 0 l 815 186 l 542 186 l 542 861 l 815 861 l 815 1047 l 46 1047 l 46 861 l 319 861 l 319 186 z "},"Ì":{"ha":861,"x_min":0,"x_max":0,"o":"m 551 1110 l 328 1376 l 106 1376 l 329 1110 z m 46 186 l 46 0 l 815 0 l 815 186 l 542 186 l 542 861 l 815 861 l 815 1047 l 46 1047 l 46 861 l 319 861 l 319 186 z "},"Ī":{"ha":861,"x_min":0,"x_max":0,"o":"m 189 1143 l 672 1143 l 672 1311 l 189 1311 z m 46 186 l 46 0 l 815 0 l 815 186 l 542 186 l 542 861 l 815 861 l 815 1047 l 46 1047 l 46 861 l 319 861 l 319 186 z "},"Į":{"ha":861,"x_min":0,"x_max":0,"o":"m 46 186 l 46 0 l 375 0 l 328 -50 b 256 -204 278 -99 256 -150 b 432 -364 256 -301 329 -364 b 631 -168 547 -364 621 -285 l 488 -168 b 444 -215 483 -197 468 -215 b 406 -174 424 -215 406 -200 b 436 -112 406 -153 415 -135 l 542 0 l 815 0 l 815 186 l 542 186 l 542 861 l 815 861 l 815 1047 l 46 1047 l 46 861 l 319 861 l 319 186 z "},"Ĩ":{"ha":861,"x_min":0,"x_max":0,"o":"m 575 1369 b 519 1292 575 1318 551 1292 b 313 1375 463 1292 415 1375 b 132 1129 199 1375 132 1265 l 286 1129 b 342 1208 286 1181 311 1208 b 549 1124 399 1208 446 1124 b 729 1369 663 1124 729 1233 z m 46 186 l 46 0 l 815 0 l 815 186 l 542 186 l 542 861 l 815 861 l 815 1047 l 46 1047 l 46 861 l 319 861 l 319 186 z "},"Ĳ":{"ha":1722,"x_min":0,"x_max":0,"o":"m 46 186 l 46 0 l 815 0 l 815 186 l 542 186 l 542 861 l 815 861 l 815 1047 l 46 1047 l 46 861 l 319 861 l 319 186 z m 1128 376 l 900 376 b 1285 -17 900 143 1054 -17 b 1667 360 1501 -17 1667 131 l 1667 1047 l 1443 1047 l 1443 376 b 1285 185 1443 247 1381 185 b 1128 376 1193 185 1128 247 z "},"Ĵ":{"ha":861,"x_min":0,"x_max":0,"o":"m 693 1407 l 385 1104 l 588 1104 l 693 1211 l 799 1104 l 1001 1104 z m 267 376 l 39 376 b 424 -17 39 143 193 -17 b 806 360 640 -17 806 131 l 806 1047 l 582 1047 l 582 376 b 424 185 582 247 519 185 b 267 376 332 185 267 247 z "},"Ķ":{"ha":861,"x_min":0,"x_max":0,"o":"m 299 1047 l 74 1047 l 74 0 l 299 0 l 299 357 l 357 429 l 608 0 l 860 0 l 511 621 l 851 1047 l 594 1047 l 299 660 z m 547 -60 l 371 -60 l 371 -190 l 179 -190 l 179 -350 l 547 -350 z "},"Ĺ":{"ha":861,"x_min":0,"x_max":0,"o":"m 101 1110 l 324 1110 l 547 1376 l 325 1376 z m 106 0 l 804 0 l 804 186 l 329 186 l 329 1047 l 106 1047 z "},"Ľ":{"ha":861,"x_min":0,"x_max":0,"o":"m 106 0 l 804 0 l 804 186 l 329 186 l 329 1047 l 106 1047 z m 444 688 l 629 688 l 726 1047 l 543 1047 z "},"Ļ":{"ha":861,"x_min":0,"x_max":0,"o":"m 106 0 l 804 0 l 804 186 l 329 186 l 329 1047 l 106 1047 z m 544 -60 l 368 -60 l 368 -190 l 176 -190 l 176 -350 l 544 -350 z "},"Ŀ":{"ha":861,"x_min":0,"x_max":0,"o":"m 106 0 l 804 0 l 804 186 l 329 186 l 329 1047 l 106 1047 z m 647 450 b 786 586 724 450 786 510 b 647 725 786 664 724 725 b 508 586 571 725 508 664 b 647 450 508 510 571 450 z "},"Ł":{"ha":861,"x_min":0,"x_max":0,"o":"m 106 0 l 804 0 l 804 186 l 329 186 l 329 482 l 560 583 l 560 767 l 329 665 l 329 1047 l 106 1047 l 106 579 l 18 540 l 18 358 l 106 397 z "},"Ń":{"ha":861,"x_min":0,"x_max":0,"o":"m 290 1110 l 513 1110 l 736 1376 l 514 1376 z m 69 1088 l 69 0 l 276 0 l 276 564 l 792 -40 l 792 1047 l 585 1047 l 585 482 z "},"Ň":{"ha":861,"x_min":0,"x_max":0,"o":"m 413 1103 l 721 1406 l 518 1406 l 413 1299 l 307 1406 l 104 1406 z m 69 1088 l 69 0 l 276 0 l 276 564 l 792 -40 l 792 1047 l 585 1047 l 585 482 z "},"Ņ":{"ha":861,"x_min":0,"x_max":0,"o":"m 69 1088 l 69 0 l 276 0 l 276 564 l 792 -40 l 792 1047 l 585 1047 l 585 482 z m 565 -60 l 389 -60 l 389 -190 l 197 -190 l 197 -350 l 565 -350 z "},"Ñ":{"ha":861,"x_min":0,"x_max":0,"o":"m 557 1369 b 501 1292 557 1318 533 1292 b 294 1375 444 1292 397 1375 b 114 1129 181 1375 114 1265 l 268 1129 b 324 1208 268 1181 293 1208 b 531 1124 381 1208 428 1124 b 711 1369 644 1124 711 1233 z m 69 1088 l 69 0 l 276 0 l 276 564 l 792 -40 l 792 1047 l 585 1047 l 585 482 z "},"Ŋ":{"ha":861,"x_min":0,"x_max":0,"o":"m 585 -349 l 792 -349 l 792 1047 l 585 1047 l 585 482 l 69 1088 l 69 0 l 276 0 l 276 564 l 585 190 z "},"Ó":{"ha":861,"x_min":0,"x_max":0,"o":"m 308 1110 l 531 1110 l 754 1376 l 532 1376 z m 36 524 b 431 -17 36 229 197 -17 b 824 524 664 -17 824 229 b 431 1064 824 819 664 1064 b 36 524 197 1064 36 819 z m 615 524 b 431 192 615 332 540 192 b 244 524 319 192 244 332 b 431 856 244 717 319 856 b 615 524 540 856 615 717 z "},"Ŏ":{"ha":861,"x_min":0,"x_max":0,"o":"m 431 1104 b 690 1364 568 1104 688 1203 l 519 1364 b 431 1258 518 1300 486 1258 b 340 1364 374 1258 343 1300 l 171 1364 b 431 1104 174 1203 293 1104 z m 36 524 b 431 -17 36 229 197 -17 b 824 524 664 -17 824 229 b 431 1064 824 819 664 1064 b 36 524 197 1064 36 819 z m 615 524 b 431 192 615 332 540 192 b 244 524 319 192 244 332 b 431 856 244 717 319 856 b 615 524 540 856 615 717 z "},"Ô":{"ha":861,"x_min":0,"x_max":0,"o":"m 431 1407 l 122 1104 l 325 1104 l 431 1211 l 536 1104 l 739 1104 z m 36 524 b 431 -17 36 229 197 -17 b 824 524 664 -17 824 229 b 431 1064 824 819 664 1064 b 36 524 197 1064 36 819 z m 615 524 b 431 192 615 332 540 192 b 244 524 319 192 244 332 b 431 856 244 717 319 856 b 615 524 540 856 615 717 z "},"Ö":{"ha":861,"x_min":0,"x_max":0,"o":"m 256 1125 b 389 1257 328 1125 389 1183 b 256 1390 389 1331 328 1390 b 122 1257 183 1390 122 1331 b 256 1125 122 1183 183 1125 z m 606 1125 b 739 1257 678 1125 739 1183 b 606 1390 739 1331 678 1390 b 472 1257 533 1390 472 1331 b 606 1125 472 1183 533 1125 z m 36 524 b 431 -17 36 229 197 -17 b 824 524 664 -17 824 229 b 431 1064 824 819 664 1064 b 36 524 197 1064 36 819 z m 615 524 b 431 192 615 332 540 192 b 244 524 319 192 244 332 b 431 856 244 717 319 856 b 615 524 540 856 615 717 z "},"Ò":{"ha":861,"x_min":0,"x_max":0,"o":"m 551 1110 l 328 1376 l 106 1376 l 329 1110 z m 36 524 b 431 -17 36 229 197 -17 b 824 524 664 -17 824 229 b 431 1064 824 819 664 1064 b 36 524 197 1064 36 819 z m 615 524 b 431 192 615 332 540 192 b 244 524 319 192 244 332 b 431 856 244 717 319 856 b 615 524 540 856 615 717 z "},"Ő":{"ha":861,"x_min":0,"x_max":0,"o":"m 154 1110 l 354 1110 l 588 1376 l 388 1376 z m 465 1110 l 665 1110 l 899 1376 l 699 1376 z m 36 524 b 431 -17 36 229 197 -17 b 824 524 664 -17 824 229 b 431 1064 824 819 664 1064 b 36 524 197 1064 36 819 z m 615 524 b 431 192 615 332 540 192 b 244 524 319 192 244 332 b 431 856 244 717 319 856 b 615 524 540 856 615 717 z "},"Ō":{"ha":861,"x_min":0,"x_max":0,"o":"m 189 1143 l 672 1143 l 672 1311 l 189 1311 z m 36 524 b 431 -17 36 229 197 -17 b 824 524 664 -17 824 229 b 431 1064 824 819 664 1064 b 36 524 197 1064 36 819 z m 615 524 b 431 192 615 332 540 192 b 244 524 319 192 244 332 b 431 856 244 717 319 856 b 615 524 540 856 615 717 z "},"Ø":{"ha":861,"x_min":0,"x_max":0,"o":"m 824 524 b 758 829 824 636 800 742 l 868 993 l 749 1085 l 664 964 b 431 1064 600 1026 521 1064 b 38 524 197 1064 38 818 b 103 219 38 411 61 306 l -8 54 l 113 -37 l 197 83 b 431 -17 261 21 340 -17 b 824 524 664 -17 824 229 z m 242 524 b 431 863 242 719 318 863 b 539 808 472 863 508 843 l 256 386 b 242 524 247 428 242 474 z m 619 524 b 431 185 619 328 543 185 b 322 239 389 185 353 204 l 606 663 b 619 524 614 621 619 574 z "},"Ǿ":{"ha":861,"x_min":0,"x_max":0,"o":"m 308 1110 l 531 1110 l 754 1376 l 532 1376 z m 824 524 b 758 829 824 636 800 742 l 868 993 l 749 1085 l 664 964 b 431 1064 600 1026 521 1064 b 38 524 197 1064 38 818 b 103 219 38 411 61 306 l -8 54 l 113 -37 l 197 83 b 431 -17 261 21 340 -17 b 824 524 664 -17 824 229 z m 242 524 b 431 863 242 719 318 863 b 539 808 472 863 508 843 l 256 386 b 242 524 247 428 242 474 z m 619 524 b 431 185 619 328 543 185 b 322 239 389 185 353 204 l 606 663 b 619 524 614 621 619 574 z "},"Õ":{"ha":861,"x_min":0,"x_max":0,"o":"m 575 1369 b 519 1292 575 1318 551 1292 b 313 1375 463 1292 415 1375 b 132 1129 199 1375 132 1265 l 286 1129 b 342 1208 286 1181 311 1208 b 549 1124 399 1208 446 1124 b 729 1369 663 1124 729 1233 z m 36 524 b 431 -17 36 229 197 -17 b 824 524 664 -17 824 229 b 431 1064 824 819 664 1064 b 36 524 197 1064 36 819 z m 615 524 b 431 192 615 332 540 192 b 244 524 319 192 244 332 b 431 856 244 717 319 856 b 615 524 540 856 615 717 z "},"Œ":{"ha":861,"x_min":0,"x_max":0,"o":"m 843 0 l 843 186 l 629 186 l 629 447 l 838 447 l 838 633 l 629 633 l 629 861 l 843 861 l 843 1047 l 406 1047 b 10 524 174 1047 10 826 b 406 0 10 221 174 0 z m 214 524 b 413 861 214 715 296 851 l 413 186 b 214 524 297 196 214 332 z "},"Ŕ":{"ha":861,"x_min":0,"x_max":0,"o":"m 308 1110 l 531 1110 l 754 1376 l 532 1376 z m 304 392 l 331 392 l 583 0 l 842 0 l 561 417 b 783 718 697 463 783 567 b 390 1047 783 924 621 1047 l 83 1047 l 83 0 l 304 0 z m 304 864 l 386 864 b 558 718 488 864 558 814 b 386 569 558 619 488 569 l 304 569 z "},"Ř":{"ha":861,"x_min":0,"x_max":0,"o":"m 431 1103 l 739 1406 l 536 1406 l 431 1299 l 325 1406 l 122 1406 z m 304 392 l 331 392 l 583 0 l 842 0 l 561 417 b 783 718 697 463 783 567 b 390 1047 783 924 621 1047 l 83 1047 l 83 0 l 304 0 z m 304 864 l 386 864 b 558 718 488 864 558 814 b 386 569 558 619 488 569 l 304 569 z "},"Ŗ":{"ha":861,"x_min":0,"x_max":0,"o":"m 304 392 l 331 392 l 583 0 l 842 0 l 561 417 b 783 718 697 463 783 567 b 390 1047 783 924 621 1047 l 83 1047 l 83 0 l 304 0 z m 304 864 l 386 864 b 558 718 488 864 558 814 b 386 569 558 619 488 569 l 304 569 z m 535 -60 l 358 -60 l 358 -190 l 167 -190 l 167 -350 l 535 -350 z "},"Ś":{"ha":861,"x_min":0,"x_max":0,"o":"m 343 1110 l 565 1110 l 789 1376 l 567 1376 z m 813 318 b 317 761 813 689 317 581 b 450 878 317 838 378 878 b 642 757 532 878 592 832 l 782 903 b 454 1065 706 1003 597 1065 b 101 742 249 1065 101 925 b 594 303 101 381 594 506 b 435 174 594 222 518 174 b 179 346 324 174 243 240 l 24 210 b 431 -17 99 72 256 -17 b 813 318 643 -17 813 124 z "},"Š":{"ha":861,"x_min":0,"x_max":0,"o":"m 465 1103 l 774 1406 l 571 1406 l 465 1299 l 360 1406 l 157 1406 z m 813 318 b 317 761 813 689 317 581 b 450 878 317 838 378 878 b 642 757 532 878 592 832 l 782 903 b 454 1065 706 1003 597 1065 b 101 742 249 1065 101 925 b 594 303 101 381 594 506 b 435 174 594 222 518 174 b 179 346 324 174 243 240 l 24 210 b 431 -17 99 72 256 -17 b 813 318 643 -17 813 124 z "},"Ş":{"ha":861,"x_min":0,"x_max":0,"o":"m 813 318 b 317 761 813 689 317 581 b 450 878 317 838 378 878 b 642 757 532 878 592 832 l 782 903 b 454 1065 706 1003 597 1065 b 101 742 249 1065 101 925 b 594 303 101 381 594 506 b 435 174 594 222 518 174 b 179 346 324 174 243 240 l 24 210 b 431 -17 99 72 256 -17 b 813 318 643 -17 813 124 z m 151 -349 l 368 -349 l 546 -100 l 329 -100 z "},"Ŝ":{"ha":861,"x_min":0,"x_max":0,"o":"m 465 1407 l 157 1104 l 360 1104 l 465 1211 l 571 1104 l 774 1104 z m 813 318 b 317 761 813 689 317 581 b 450 878 317 838 378 878 b 642 757 532 878 592 832 l 782 903 b 454 1065 706 1003 597 1065 b 101 742 249 1065 101 925 b 594 303 101 381 594 506 b 435 174 594 222 518 174 b 179 346 324 174 243 240 l 24 210 b 431 -17 99 72 256 -17 b 813 318 643 -17 813 124 z "},"Ș":{"ha":861,"x_min":0,"x_max":0,"o":"m 813 318 b 317 761 813 689 317 581 b 450 878 317 838 378 878 b 642 757 532 878 592 832 l 782 903 b 454 1065 706 1003 597 1065 b 101 742 249 1065 101 925 b 594 303 101 381 594 506 b 435 174 594 222 518 174 b 179 346 324 174 243 240 l 24 210 b 431 -17 99 72 256 -17 b 813 318 643 -17 813 124 z m 521 -60 l 344 -60 l 344 -190 l 153 -190 l 153 -350 l 521 -350 z "},"ẞ":{"ha":861,"x_min":0,"x_max":0,"o":"m 407 557 b 633 376 539 557 633 496 b 411 194 633 260 544 194 l 411 -3 b 849 378 636 -4 849 128 b 672 675 849 514 792 613 l 839 1047 l 64 1047 l 64 0 l 288 0 l 288 863 l 539 863 z "},"Ŧ":{"ha":861,"x_min":0,"x_max":0,"o":"m 171 633 l 171 447 l 319 447 l 319 0 l 542 0 l 542 447 l 690 447 l 690 633 l 542 633 l 542 861 l 838 861 l 838 1047 l 24 1047 l 24 861 l 319 861 l 319 633 z "},"Ť":{"ha":861,"x_min":0,"x_max":0,"o":"m 431 1103 l 739 1406 l 536 1406 l 431 1299 l 325 1406 l 122 1406 z m 838 861 l 838 1047 l 24 1047 l 24 861 l 319 861 l 319 0 l 542 0 l 542 861 z "},"Ţ":{"ha":861,"x_min":0,"x_max":0,"o":"m 838 861 l 838 1047 l 24 1047 l 24 861 l 319 861 l 319 0 l 542 0 l 542 861 z m 150 -349 l 367 -349 l 544 -100 l 328 -100 z "},"Ț":{"ha":861,"x_min":0,"x_max":0,"o":"m 838 861 l 838 1047 l 24 1047 l 24 861 l 319 861 l 319 0 l 542 0 l 542 861 z m 519 -60 l 343 -60 l 343 -190 l 151 -190 l 151 -350 l 519 -350 z "},"Þ":{"ha":861,"x_min":0,"x_max":0,"o":"m 310 207 l 426 207 b 821 536 658 207 821 331 b 426 867 821 743 658 867 l 310 867 l 310 1047 l 88 1047 l 88 0 l 310 0 z m 310 683 l 422 683 b 594 536 524 683 594 633 b 422 390 594 439 524 390 l 310 390 z "},"Ú":{"ha":861,"x_min":0,"x_max":0,"o":"m 308 1110 l 531 1110 l 754 1376 l 532 1376 z m 431 183 b 274 378 336 183 274 250 l 274 1047 l 51 1047 l 51 378 b 431 -17 51 125 217 -17 b 810 378 644 -17 810 125 l 810 1047 l 588 1047 l 588 378 b 431 183 588 250 525 183 z "},"Ŭ":{"ha":861,"x_min":0,"x_max":0,"o":"m 431 1104 b 690 1364 568 1104 688 1203 l 519 1364 b 431 1258 518 1300 486 1258 b 340 1364 374 1258 343 1300 l 171 1364 b 431 1104 174 1203 293 1104 z m 431 183 b 274 378 336 183 274 250 l 274 1047 l 51 1047 l 51 378 b 431 -17 51 125 217 -17 b 810 378 644 -17 810 125 l 810 1047 l 588 1047 l 588 378 b 431 183 588 250 525 183 z "},"Û":{"ha":861,"x_min":0,"x_max":0,"o":"m 431 1407 l 122 1104 l 325 1104 l 431 1211 l 536 1104 l 739 1104 z m 431 183 b 274 378 336 183 274 250 l 274 1047 l 51 1047 l 51 378 b 431 -17 51 125 217 -17 b 810 378 644 -17 810 125 l 810 1047 l 588 1047 l 588 378 b 431 183 588 250 525 183 z "},"Ü":{"ha":861,"x_min":0,"x_max":0,"o":"m 256 1125 b 389 1257 328 1125 389 1183 b 256 1390 389 1331 328 1390 b 122 1257 183 1390 122 1331 b 256 1125 122 1183 183 1125 z m 606 1125 b 739 1257 678 1125 739 1183 b 606 1390 739 1331 678 1390 b 472 1257 533 1390 472 1331 b 606 1125 472 1183 533 1125 z m 431 183 b 274 378 336 183 274 250 l 274 1047 l 51 1047 l 51 378 b 431 -17 51 125 217 -17 b 810 378 644 -17 810 125 l 810 1047 l 588 1047 l 588 378 b 431 183 588 250 525 183 z "},"Ù":{"ha":861,"x_min":0,"x_max":0,"o":"m 551 1110 l 328 1376 l 106 1376 l 329 1110 z m 431 183 b 274 378 336 183 274 250 l 274 1047 l 51 1047 l 51 378 b 431 -17 51 125 217 -17 b 810 378 644 -17 810 125 l 810 1047 l 588 1047 l 588 378 b 431 183 588 250 525 183 z "},"Ű":{"ha":861,"x_min":0,"x_max":0,"o":"m 154 1110 l 354 1110 l 588 1376 l 388 1376 z m 465 1110 l 665 1110 l 899 1376 l 699 1376 z m 431 183 b 274 378 336 183 274 250 l 274 1047 l 51 1047 l 51 378 b 431 -17 51 125 217 -17 b 810 378 644 -17 810 125 l 810 1047 l 588 1047 l 588 378 b 431 183 588 250 525 183 z "},"Ū":{"ha":861,"x_min":0,"x_max":0,"o":"m 189 1143 l 672 1143 l 672 1311 l 189 1311 z m 431 183 b 274 378 336 183 274 250 l 274 1047 l 51 1047 l 51 378 b 431 -17 51 125 217 -17 b 810 378 644 -17 810 125 l 810 1047 l 588 1047 l 588 378 b 431 183 588 250 525 183 z "},"Ų":{"ha":861,"x_min":0,"x_max":0,"o":"m 431 183 b 274 378 336 183 274 250 l 274 1047 l 51 1047 l 51 378 b 386 -14 51 143 194 4 l 351 -50 b 281 -204 303 -97 281 -151 b 457 -364 281 -301 354 -364 b 656 -168 572 -364 646 -285 l 514 -168 b 471 -215 510 -197 493 -215 b 431 -174 449 -215 431 -200 b 463 -112 431 -153 440 -135 l 572 7 b 810 378 714 57 810 185 l 810 1047 l 588 1047 l 588 378 b 431 183 588 250 525 183 z "},"Ů":{"ha":861,"x_min":0,"x_max":0,"o":"m 201 1329 b 429 1103 201 1201 303 1103 b 658 1329 557 1103 658 1201 b 429 1557 658 1457 557 1557 b 201 1329 303 1557 201 1457 z m 429 1254 b 354 1329 388 1254 354 1288 b 429 1404 354 1372 388 1404 b 504 1329 471 1404 504 1372 b 429 1254 504 1288 471 1254 z m 431 183 b 274 378 336 183 274 250 l 274 1047 l 51 1047 l 51 378 b 431 -17 51 125 217 -17 b 810 378 644 -17 810 125 l 810 1047 l 588 1047 l 588 378 b 431 183 588 250 525 183 z "},"Ũ":{"ha":861,"x_min":0,"x_max":0,"o":"m 575 1369 b 519 1292 575 1318 551 1292 b 313 1375 463 1292 415 1375 b 132 1129 199 1375 132 1265 l 286 1129 b 342 1208 286 1181 311 1208 b 549 1124 399 1208 446 1124 b 729 1369 663 1124 729 1233 z m 431 183 b 274 378 336 183 274 250 l 274 1047 l 51 1047 l 51 378 b 431 -17 51 125 217 -17 b 810 378 644 -17 810 125 l 810 1047 l 588 1047 l 588 378 b 431 183 588 250 525 183 z "},"Ẃ":{"ha":861,"x_min":0,"x_max":0,"o":"m 308 1110 l 531 1110 l 754 1376 l 532 1376 z m 432 1075 l 300 568 l 204 1047 l 0 1047 l 247 -40 l 431 544 l 614 -40 l 861 1047 l 660 1047 l 564 568 z "},"Ŵ":{"ha":861,"x_min":0,"x_max":0,"o":"m 431 1407 l 122 1104 l 325 1104 l 431 1211 l 536 1104 l 739 1104 z m 432 1075 l 300 568 l 204 1047 l 0 1047 l 247 -40 l 431 544 l 614 -40 l 861 1047 l 660 1047 l 564 568 z "},"Ẁ":{"ha":861,"x_min":0,"x_max":0,"o":"m 551 1110 l 328 1376 l 106 1376 l 329 1110 z m 432 1075 l 300 568 l 204 1047 l 0 1047 l 247 -40 l 431 544 l 614 -40 l 861 1047 l 660 1047 l 564 568 z "},"Ẅ":{"ha":861,"x_min":0,"x_max":0,"o":"m 256 1125 b 389 1257 328 1125 389 1183 b 256 1390 389 1331 328 1390 b 122 1257 183 1390 122 1331 b 256 1125 122 1183 183 1125 z m 606 1125 b 739 1257 678 1125 739 1183 b 606 1390 739 1331 678 1390 b 472 1257 533 1390 472 1331 b 606 1125 472 1183 533 1125 z m 432 1075 l 300 568 l 204 1047 l 0 1047 l 247 -40 l 431 544 l 614 -40 l 861 1047 l 660 1047 l 564 568 z "},"Ý":{"ha":861,"x_min":0,"x_max":0,"o":"m 308 1110 l 531 1110 l 754 1376 l 532 1376 z m 542 0 l 542 439 l 854 1047 l 611 1047 l 431 692 l 251 1047 l 7 1047 l 318 439 l 318 0 z "},"Ŷ":{"ha":861,"x_min":0,"x_max":0,"o":"m 431 1407 l 122 1104 l 325 1104 l 431 1211 l 536 1104 l 739 1104 z m 542 0 l 542 439 l 854 1047 l 611 1047 l 431 692 l 251 1047 l 7 1047 l 318 439 l 318 0 z "},"Ÿ":{"ha":861,"x_min":0,"x_max":0,"o":"m 256 1125 b 389 1257 328 1125 389 1183 b 256 1390 389 1331 328 1390 b 122 1257 183 1390 122 1331 b 256 1125 122 1183 183 1125 z m 606 1125 b 739 1257 678 1125 739 1183 b 606 1390 739 1331 678 1390 b 472 1257 533 1390 472 1331 b 606 1125 472 1183 533 1125 z m 542 0 l 542 439 l 854 1047 l 611 1047 l 431 692 l 251 1047 l 7 1047 l 318 439 l 318 0 z "},"Ỳ":{"ha":861,"x_min":0,"x_max":0,"o":"m 551 1110 l 328 1376 l 106 1376 l 329 1110 z m 542 0 l 542 439 l 854 1047 l 611 1047 l 431 692 l 251 1047 l 7 1047 l 318 439 l 318 0 z "},"Ź":{"ha":861,"x_min":0,"x_max":0,"o":"m 306 1110 l 528 1110 l 751 1376 l 529 1376 z m 485 861 l 18 0 l 824 0 l 824 186 l 365 186 l 833 1047 l 58 1047 l 58 861 z "},"Ž":{"ha":861,"x_min":0,"x_max":0,"o":"m 428 1103 l 736 1406 l 533 1406 l 428 1299 l 322 1406 l 119 1406 z m 485 861 l 18 0 l 824 0 l 824 186 l 365 186 l 833 1047 l 58 1047 l 58 861 z "},"Ż":{"ha":861,"x_min":0,"x_max":0,"o":"m 428 1124 b 567 1261 504 1124 567 1185 b 428 1399 567 1338 504 1399 b 289 1261 353 1399 289 1338 b 428 1124 289 1185 353 1124 z m 485 861 l 18 0 l 824 0 l 824 186 l 365 186 l 833 1047 l 58 1047 l 58 861 z "},"a":{"ha":861,"x_min":0,"x_max":0,"o":"m 575 697 l 575 629 b 371 714 536 675 463 714 b 35 349 182 714 35 557 b 371 -17 35 140 182 -17 b 575 68 463 -17 536 22 l 575 0 l 786 0 l 786 697 z m 243 349 b 414 532 243 456 317 532 b 582 349 510 532 582 456 b 414 165 582 242 510 165 b 243 349 317 165 243 242 z "},"b":{"ha":861,"x_min":0,"x_max":0,"o":"m 286 1119 l 75 1119 l 75 0 l 286 0 l 286 68 b 492 -17 325 22 399 -17 b 828 349 681 -17 828 140 b 492 714 828 557 681 714 b 286 629 399 714 325 675 z m 618 349 b 449 165 618 242 544 165 b 279 349 351 165 279 242 b 449 532 279 456 351 532 b 618 349 544 532 618 456 z "},"c":{"ha":861,"x_min":0,"x_max":0,"o":"m 546 714 b 150 349 332 714 150 560 b 546 -17 150 138 332 -17 b 706 13 607 -17 658 -6 l 706 218 b 551 169 665 189 618 169 b 349 349 442 169 349 239 b 551 528 349 458 442 528 b 704 479 618 528 664 508 l 704 685 b 546 714 658 704 607 714 z "},"d":{"ha":861,"x_min":0,"x_max":0,"o":"m 575 1119 l 575 629 b 369 714 536 675 463 714 b 33 349 181 714 33 557 b 369 -17 33 140 181 -17 b 575 68 463 -17 536 22 l 575 0 l 786 0 l 786 1119 z m 243 349 b 413 532 243 456 317 532 b 582 349 510 532 582 456 b 413 165 582 242 510 165 b 243 349 317 165 243 242 z "},"e":{"ha":861,"x_min":0,"x_max":0,"o":"m 442 156 b 272 294 360 156 292 207 l 785 294 b 436 714 799 536 663 714 b 76 349 244 714 76 560 b 442 -17 76 139 244 -17 b 758 154 576 -17 692 44 l 610 257 b 442 156 569 194 524 156 z m 438 542 b 583 425 526 542 574 485 l 279 425 b 438 542 304 499 365 542 z "},"f":{"ha":861,"x_min":0,"x_max":0,"o":"m 58 528 l 325 528 l 325 0 l 533 0 l 533 528 l 803 528 l 803 697 l 533 697 l 533 769 b 693 949 533 879 596 949 b 803 924 733 949 768 942 l 803 1113 b 664 1136 769 1128 721 1136 b 325 779 460 1136 325 988 l 325 697 l 58 697 z "},"g":{"ha":861,"x_min":0,"x_max":0,"o":"m 786 -11 l 786 697 l 575 697 l 575 629 b 371 714 536 675 463 714 b 35 349 182 714 35 557 b 371 -17 35 140 182 -17 b 575 68 463 -17 536 22 l 575 -21 b 407 -187 575 -125 504 -187 b 247 -44 319 -187 254 -132 l 42 -44 b 407 -364 51 -243 214 -364 b 786 -11 610 -364 786 -219 z m 243 349 b 414 532 243 456 317 532 b 582 349 510 532 582 456 b 414 165 582 242 510 165 b 243 349 317 165 243 242 z "},"h":{"ha":861,"x_min":0,"x_max":0,"o":"m 551 400 l 551 0 l 763 0 l 763 458 b 510 714 763 610 668 714 b 315 628 425 714 357 678 l 315 1119 l 104 1119 l 104 0 l 315 0 l 315 383 b 438 525 315 465 361 525 b 551 400 510 525 551 472 z "},"i":{"ha":861,"x_min":0,"x_max":0,"o":"m 426 832 b 565 968 501 832 565 892 b 426 1107 565 1046 501 1107 b 288 968 350 1107 288 1046 b 426 832 288 892 350 832 z m 92 0 l 803 0 l 803 169 l 553 169 l 553 697 l 92 697 l 92 528 l 342 528 l 342 169 l 92 169 z "},"j":{"ha":861,"x_min":0,"x_max":0,"o":"m 406 968 b 544 832 406 892 468 832 b 683 968 621 832 683 892 b 544 1107 683 1046 621 1107 b 406 968 468 1107 406 1046 z m 439 -349 l 650 -349 l 650 697 l 74 697 l 74 528 l 439 528 z "},"k":{"ha":861,"x_min":0,"x_max":0,"o":"m 603 0 l 854 0 l 531 372 l 835 697 l 585 697 l 317 401 l 317 1119 l 107 1119 l 107 0 l 317 0 l 317 332 z "},"l":{"ha":861,"x_min":0,"x_max":0,"o":"m 92 0 l 803 0 l 803 169 l 553 169 l 553 1119 l 92 1119 l 92 950 l 342 950 l 342 169 l 92 169 z "},"m":{"ha":861,"x_min":0,"x_max":0,"o":"m 486 632 b 356 714 461 681 419 714 b 219 633 300 714 246 686 l 219 697 l 47 697 l 47 0 l 224 0 l 224 457 b 289 553 224 514 244 553 b 347 468 329 553 347 519 l 347 0 l 524 0 l 524 457 b 589 553 524 514 544 553 b 647 468 629 553 647 519 l 647 0 l 824 0 l 824 507 b 649 714 824 639 749 714 b 486 632 576 714 522 681 z "},"n":{"ha":861,"x_min":0,"x_max":0,"o":"m 551 400 l 551 0 l 763 0 l 763 458 b 510 714 763 610 668 714 b 315 628 425 714 357 678 l 315 697 l 104 697 l 104 0 l 315 0 l 315 383 b 438 525 315 465 361 525 b 551 400 510 525 551 472 z "},"o":{"ha":861,"x_min":0,"x_max":0,"o":"m 56 349 b 431 -17 56 139 226 -17 b 806 349 635 -17 806 139 b 431 714 806 558 635 714 b 56 349 226 714 56 558 z m 264 349 b 431 531 264 457 336 531 b 597 349 525 531 597 457 b 431 167 597 240 525 167 b 264 349 336 167 264 240 z "},"p":{"ha":861,"x_min":0,"x_max":0,"o":"m 286 697 l 75 697 l 75 -349 l 286 -349 l 286 68 b 492 -17 325 22 399 -17 b 828 349 681 -17 828 140 b 492 714 828 557 681 714 b 286 629 399 714 325 675 z m 618 349 b 449 165 618 242 544 165 b 279 349 351 165 279 242 b 449 532 279 456 351 532 b 618 349 544 532 618 456 z "},"q":{"ha":861,"x_min":0,"x_max":0,"o":"m 575 697 l 575 629 b 369 714 536 675 463 714 b 33 349 181 714 33 557 b 369 -17 33 140 181 -17 b 575 68 463 -17 536 22 l 575 -349 l 786 -349 l 786 697 z m 243 349 b 413 532 243 456 317 532 b 582 349 510 532 582 456 b 413 165 582 242 510 165 b 243 349 317 165 243 242 z "},"r":{"ha":861,"x_min":0,"x_max":0,"o":"m 586 389 l 586 292 l 793 292 l 793 436 b 528 714 793 599 694 714 b 315 615 436 714 360 674 l 315 697 l 104 697 l 104 0 l 315 0 l 315 368 b 453 531 315 460 368 531 b 586 389 536 531 586 467 z "},"s":{"ha":861,"x_min":0,"x_max":0,"o":"m 74 114 b 414 -17 139 31 281 -17 b 749 226 600 -17 749 72 b 329 500 749 489 329 390 b 425 560 329 538 367 560 b 621 474 499 560 567 533 l 733 594 b 425 714 672 664 567 714 b 114 476 247 714 114 619 b 536 204 114 201 536 324 b 425 140 536 163 488 140 b 178 249 342 140 239 179 z "},"t":{"ha":861,"x_min":0,"x_max":0,"o":"m 58 528 l 325 528 l 325 0 l 536 0 l 536 528 l 803 528 l 803 697 l 536 697 l 536 924 l 325 924 l 325 697 l 58 697 z "},"u":{"ha":861,"x_min":0,"x_max":0,"o":"m 431 165 b 308 303 354 165 308 217 l 308 697 l 97 697 l 97 296 b 431 -17 97 106 238 -17 b 764 294 624 -17 764 106 l 764 697 l 553 697 l 553 303 b 431 165 553 217 507 165 z "},"v":{"ha":861,"x_min":0,"x_max":0,"o":"m 431 -40 l 838 697 l 617 697 l 436 342 l 256 697 l 24 697 z "},"w":{"ha":861,"x_min":0,"x_max":0,"o":"m 432 725 l 294 396 l 197 697 l 0 697 l 253 -40 l 431 353 l 608 -40 l 861 697 l 667 697 l 569 396 z "},"x":{"ha":861,"x_min":0,"x_max":0,"o":"m 65 697 l 310 358 l 40 0 l 268 0 l 426 219 l 583 0 l 822 0 l 554 367 l 797 697 l 572 697 l 435 508 l 304 697 z "},"y":{"ha":861,"x_min":0,"x_max":0,"o":"m 68 -349 l 288 -349 l 843 697 l 619 697 l 438 351 l 256 697 l 25 697 l 325 139 z "},"z":{"ha":861,"x_min":0,"x_max":0,"o":"m 444 528 l 67 0 l 775 0 l 775 169 l 401 169 l 781 697 l 92 697 l 92 528 z "},"á":{"ha":861,"x_min":0,"x_max":0,"o":"m 326 810 l 544 810 l 733 1076 l 517 1076 z m 575 697 l 575 629 b 371 714 536 675 463 714 b 35 349 182 714 35 557 b 371 -17 35 140 182 -17 b 575 68 463 -17 536 22 l 575 0 l 786 0 l 786 697 z m 243 349 b 414 532 243 456 317 532 b 582 349 510 532 582 456 b 414 165 582 242 510 165 b 243 349 317 165 243 242 z "},"ă":{"ha":861,"x_min":0,"x_max":0,"o":"m 446 824 b 699 1076 581 824 696 919 l 528 1076 b 446 976 525 1017 497 976 b 363 1076 394 976 365 1017 l 193 1076 b 446 824 196 919 311 824 z m 575 697 l 575 629 b 371 714 536 675 463 714 b 35 349 182 714 35 557 b 371 -17 35 140 182 -17 b 575 68 463 -17 536 22 l 575 0 l 786 0 l 786 697 z m 243 349 b 414 532 243 456 317 532 b 582 349 510 532 582 456 b 414 165 582 242 510 165 b 243 349 317 165 243 242 z "},"â":{"ha":861,"x_min":0,"x_max":0,"o":"m 446 1122 l 156 806 l 346 806 l 446 915 l 546 806 l 736 806 z m 575 697 l 575 629 b 371 714 536 675 463 714 b 35 349 182 714 35 557 b 371 -17 35 140 182 -17 b 575 68 463 -17 536 22 l 575 0 l 786 0 l 786 697 z m 243 349 b 414 532 243 456 317 532 b 582 349 510 532 582 456 b 414 165 582 242 510 165 b 243 349 317 165 243 242 z "},"ä":{"ha":861,"x_min":0,"x_max":0,"o":"m 278 842 b 413 974 351 842 413 900 b 278 1107 413 1047 351 1107 b 144 974 206 1107 144 1047 b 278 842 144 900 206 842 z m 614 842 b 747 974 686 842 747 900 b 614 1107 747 1047 686 1107 b 479 974 540 1107 479 1047 b 614 842 479 900 540 842 z m 575 697 l 575 629 b 371 714 536 675 463 714 b 35 349 182 714 35 557 b 371 -17 35 140 182 -17 b 575 68 463 -17 536 22 l 575 0 l 786 0 l 786 697 z m 243 349 b 414 532 243 456 317 532 b 582 349 510 532 582 456 b 414 165 582 242 510 165 b 243 349 317 165 243 242 z "},"à":{"ha":861,"x_min":0,"x_max":0,"o":"m 558 810 l 368 1076 l 151 1076 l 340 810 z m 575 697 l 575 629 b 371 714 536 675 463 714 b 35 349 182 714 35 557 b 371 -17 35 140 182 -17 b 575 68 463 -17 536 22 l 575 0 l 786 0 l 786 697 z m 243 349 b 414 532 243 456 317 532 b 582 349 510 532 582 456 b 414 165 582 242 510 165 b 243 349 317 165 243 242 z "},"ā":{"ha":861,"x_min":0,"x_max":0,"o":"m 210 861 l 682 861 l 682 1029 l 210 1029 z m 575 697 l 575 629 b 371 714 536 675 463 714 b 35 349 182 714 35 557 b 371 -17 35 140 182 -17 b 575 68 463 -17 536 22 l 575 0 l 786 0 l 786 697 z m 243 349 b 414 532 243 456 317 532 b 582 349 510 532 582 456 b 414 165 582 242 510 165 b 243 349 317 165 243 242 z "},"ą":{"ha":861,"x_min":0,"x_max":0,"o":"m 575 697 l 575 629 b 371 714 536 675 463 714 b 35 349 182 714 35 557 b 371 -17 35 140 182 -17 b 575 68 463 -17 536 22 l 575 4 l 525 -50 b 453 -204 475 -99 453 -150 b 629 -364 453 -301 526 -364 b 828 -168 744 -364 818 -285 l 685 -168 b 642 -215 681 -197 665 -215 b 603 -174 621 -215 603 -200 b 633 -112 603 -153 613 -135 l 739 0 l 786 0 l 786 697 z m 243 349 b 414 532 243 456 317 532 b 582 349 510 532 582 456 b 414 165 582 242 510 165 b 243 349 317 165 243 242 z "},"å":{"ha":861,"x_min":0,"x_max":0,"o":"m 217 1007 b 446 781 217 879 319 781 b 675 1007 572 781 675 879 b 446 1235 675 1135 572 1235 b 217 1007 319 1235 217 1135 z m 446 932 b 371 1007 404 932 371 965 b 446 1082 371 1050 404 1082 b 521 1007 488 1082 521 1050 b 446 932 521 965 488 932 z m 575 697 l 575 629 b 371 714 536 675 463 714 b 35 349 182 714 35 557 b 371 -17 35 140 182 -17 b 575 68 463 -17 536 22 l 575 0 l 786 0 l 786 697 z m 243 349 b 414 532 243 456 317 532 b 582 349 510 532 582 456 b 414 165 582 242 510 165 b 243 349 317 165 243 242 z "},"ã":{"ha":861,"x_min":0,"x_max":0,"o":"m 583 1069 b 528 992 583 1018 560 992 b 332 1075 475 992 431 1075 b 153 829 221 1075 153 967 l 308 829 b 363 908 308 881 332 908 b 558 825 418 908 461 825 b 739 1069 669 825 739 933 z m 575 697 l 575 629 b 371 714 536 675 463 714 b 35 349 182 714 35 557 b 371 -17 35 140 182 -17 b 575 68 463 -17 536 22 l 575 0 l 786 0 l 786 697 z m 243 349 b 414 532 243 456 317 532 b 582 349 510 532 582 456 b 414 165 582 242 510 165 b 243 349 317 165 243 242 z "},"æ":{"ha":861,"x_min":0,"x_max":0,"o":"m 829 154 l 710 257 b 596 156 682 194 651 156 b 482 294 540 156 494 207 l 850 294 b 592 714 860 536 760 714 b 428 636 531 714 474 686 b 249 714 388 686 328 714 b 58 661 175 714 103 690 l 58 481 b 217 536 101 513 157 536 b 339 461 279 536 322 510 b 329 403 335 443 332 424 b 238 421 303 414 271 421 b 8 206 121 421 8 346 b 232 -17 8 67 114 -17 b 418 74 304 -17 374 17 b 596 -17 465 17 528 -17 b 829 154 694 -17 781 44 z m 588 542 b 682 425 647 542 676 485 l 485 425 b 588 542 501 499 539 542 z m 165 206 b 257 285 165 256 207 285 b 335 258 285 285 311 276 b 356 183 339 232 346 207 b 257 128 331 146 294 128 b 165 206 208 128 165 156 z "},"ǽ":{"ha":861,"x_min":0,"x_max":0,"o":"m 319 810 l 538 810 l 726 1076 l 510 1076 z m 829 154 l 710 257 b 596 156 682 194 651 156 b 482 294 540 156 494 207 l 850 294 b 592 714 860 536 760 714 b 428 636 531 714 474 686 b 249 714 388 686 328 714 b 58 661 175 714 103 690 l 58 481 b 217 536 101 513 157 536 b 339 461 279 536 322 510 b 329 403 335 443 332 424 b 238 421 303 414 271 421 b 8 206 121 421 8 346 b 232 -17 8 67 114 -17 b 418 74 304 -17 374 17 b 596 -17 465 17 528 -17 b 829 154 694 -17 781 44 z m 588 542 b 682 425 647 542 676 485 l 485 425 b 588 542 501 499 539 542 z m 165 206 b 257 285 165 256 207 285 b 335 258 285 285 311 276 b 356 183 339 232 346 207 b 257 128 331 146 294 128 b 165 206 208 128 165 156 z "},"ć":{"ha":861,"x_min":0,"x_max":0,"o":"m 390 810 l 608 810 l 797 1076 l 581 1076 z m 546 714 b 150 349 332 714 150 560 b 546 -17 150 138 332 -17 b 706 13 607 -17 658 -6 l 706 218 b 551 169 665 189 618 169 b 349 349 442 169 349 239 b 551 528 349 458 442 528 b 704 479 618 528 664 508 l 704 685 b 546 714 658 704 607 714 z "},"č":{"ha":861,"x_min":0,"x_max":0,"o":"m 510 783 l 800 1100 l 610 1100 l 510 990 l 410 1100 l 219 1100 z m 546 714 b 150 349 332 714 150 560 b 546 -17 150 138 332 -17 b 706 13 607 -17 658 -6 l 706 218 b 551 169 665 189 618 169 b 349 349 442 169 349 239 b 551 528 349 458 442 528 b 704 479 618 528 664 508 l 704 685 b 546 714 658 704 607 714 z "},"ç":{"ha":861,"x_min":0,"x_max":0,"o":"m 546 714 b 150 349 332 714 150 560 b 546 -17 150 138 332 -17 b 706 13 607 -17 658 -6 l 706 218 b 551 169 665 189 618 169 b 349 349 442 169 349 239 b 551 528 349 458 442 528 b 704 479 618 528 664 508 l 704 685 b 546 714 658 704 607 714 z m 253 -349 l 469 -349 l 647 -100 l 431 -100 z "},"ĉ":{"ha":861,"x_min":0,"x_max":0,"o":"m 510 1122 l 219 806 l 410 806 l 510 915 l 610 806 l 800 806 z m 546 714 b 150 349 332 714 150 560 b 546 -17 150 138 332 -17 b 706 13 607 -17 658 -6 l 706 218 b 551 169 665 189 618 169 b 349 349 442 169 349 239 b 551 528 349 458 442 528 b 704 479 618 528 664 508 l 704 685 b 546 714 658 704 607 714 z "},"ċ":{"ha":861,"x_min":0,"x_max":0,"o":"m 510 832 b 649 968 586 832 649 892 b 510 1107 649 1046 586 1107 b 371 968 433 1107 371 1046 b 510 832 371 892 433 832 z m 546 714 b 150 349 332 714 150 560 b 546 -17 150 138 332 -17 b 706 13 607 -17 658 -6 l 706 218 b 551 169 665 189 618 169 b 349 349 442 169 349 239 b 551 528 349 458 442 528 b 704 479 618 528 664 508 l 704 685 b 546 714 658 704 607 714 z "},"ď":{"ha":861,"x_min":0,"x_max":0,"o":"m 488 1119 l 488 633 b 322 714 460 679 400 714 b 31 349 149 714 31 557 b 322 -17 31 140 149 -17 b 488 64 400 -17 460 18 l 488 0 l 693 0 l 693 1119 z m 721 760 l 874 760 l 936 1119 l 783 1119 z m 235 349 b 365 532 235 456 289 532 b 493 349 442 532 493 456 b 365 165 493 242 442 165 b 235 349 289 165 235 242 z "},"đ":{"ha":861,"x_min":0,"x_max":0,"o":"m 575 1119 l 575 1024 l 369 1024 l 369 856 l 575 856 l 575 629 b 369 714 536 675 463 714 b 33 349 181 714 33 557 b 369 -17 33 140 181 -17 b 575 68 463 -17 536 22 l 575 0 l 786 0 l 786 856 l 865 856 l 865 1024 l 786 1024 l 786 1119 z m 243 349 b 413 532 243 456 317 532 b 582 349 510 532 582 456 b 413 165 582 242 510 165 b 243 349 317 165 243 242 z "},"é":{"ha":861,"x_min":0,"x_max":0,"o":"m 319 810 l 538 810 l 726 1076 l 510 1076 z m 442 156 b 272 294 360 156 292 207 l 785 294 b 436 714 799 536 663 714 b 76 349 244 714 76 560 b 442 -17 76 139 244 -17 b 758 154 576 -17 692 44 l 610 257 b 442 156 569 194 524 156 z m 438 542 b 583 425 526 542 574 485 l 279 425 b 438 542 304 499 365 542 z "},"ĕ":{"ha":861,"x_min":0,"x_max":0,"o":"m 439 824 b 692 1076 574 824 689 919 l 521 1076 b 439 976 518 1017 490 976 b 356 1076 388 976 358 1017 l 186 1076 b 439 824 189 919 304 824 z m 442 156 b 272 294 360 156 292 207 l 785 294 b 436 714 799 536 663 714 b 76 349 244 714 76 560 b 442 -17 76 139 244 -17 b 758 154 576 -17 692 44 l 610 257 b 442 156 569 194 524 156 z m 438 542 b 583 425 526 542 574 485 l 279 425 b 438 542 304 499 365 542 z "},"ě":{"ha":861,"x_min":0,"x_max":0,"o":"m 439 783 l 729 1100 l 539 1100 l 439 990 l 339 1100 l 149 1100 z m 442 156 b 272 294 360 156 292 207 l 785 294 b 436 714 799 536 663 714 b 76 349 244 714 76 560 b 442 -17 76 139 244 -17 b 758 154 576 -17 692 44 l 610 257 b 442 156 569 194 524 156 z m 438 542 b 583 425 526 542 574 485 l 279 425 b 438 542 304 499 365 542 z "},"ê":{"ha":861,"x_min":0,"x_max":0,"o":"m 439 1122 l 149 806 l 339 806 l 439 915 l 539 806 l 729 806 z m 442 156 b 272 294 360 156 292 207 l 785 294 b 436 714 799 536 663 714 b 76 349 244 714 76 560 b 442 -17 76 139 244 -17 b 758 154 576 -17 692 44 l 610 257 b 442 156 569 194 524 156 z m 438 542 b 583 425 526 542 574 485 l 279 425 b 438 542 304 499 365 542 z "},"ë":{"ha":861,"x_min":0,"x_max":0,"o":"m 271 842 b 406 974 344 842 406 900 b 271 1107 406 1047 344 1107 b 138 974 199 1107 138 1047 b 271 842 138 900 199 842 z m 607 842 b 740 974 679 842 740 900 b 607 1107 740 1047 679 1107 b 472 974 533 1107 472 1047 b 607 842 472 900 533 842 z m 442 156 b 272 294 360 156 292 207 l 785 294 b 436 714 799 536 663 714 b 76 349 244 714 76 560 b 442 -17 76 139 244 -17 b 758 154 576 -17 692 44 l 610 257 b 442 156 569 194 524 156 z m 438 542 b 583 425 526 542 574 485 l 279 425 b 438 542 304 499 365 542 z "},"ė":{"ha":861,"x_min":0,"x_max":0,"o":"m 439 832 b 578 968 515 832 578 892 b 439 1107 578 1046 515 1107 b 300 968 363 1107 300 1046 b 439 832 300 892 363 832 z m 442 156 b 272 294 360 156 292 207 l 785 294 b 436 714 799 536 663 714 b 76 349 244 714 76 560 b 442 -17 76 139 244 -17 b 758 154 576 -17 692 44 l 610 257 b 442 156 569 194 524 156 z m 438 542 b 583 425 526 542 574 485 l 279 425 b 438 542 304 499 365 542 z "},"è":{"ha":861,"x_min":0,"x_max":0,"o":"m 551 810 l 361 1076 l 144 1076 l 333 810 z m 442 156 b 272 294 360 156 292 207 l 785 294 b 436 714 799 536 663 714 b 76 349 244 714 76 560 b 442 -17 76 139 244 -17 b 758 154 576 -17 692 44 l 610 257 b 442 156 569 194 524 156 z m 438 542 b 583 425 526 542 574 485 l 279 425 b 438 542 304 499 365 542 z "},"ē":{"ha":861,"x_min":0,"x_max":0,"o":"m 203 861 l 675 861 l 675 1029 l 203 1029 z m 442 156 b 272 294 360 156 292 207 l 785 294 b 436 714 799 536 663 714 b 76 349 244 714 76 560 b 442 -17 76 139 244 -17 b 758 154 576 -17 692 44 l 610 257 b 442 156 569 194 524 156 z m 438 542 b 583 425 526 542 574 485 l 279 425 b 438 542 304 499 365 542 z "},"ę":{"ha":861,"x_min":0,"x_max":0,"o":"m 76 349 b 442 -17 76 139 244 -17 l 451 -17 l 419 -50 b 346 -208 372 -99 346 -154 b 524 -364 346 -296 415 -364 b 722 -168 638 -364 713 -285 l 579 -168 b 536 -215 575 -197 560 -215 b 497 -175 514 -215 497 -201 b 535 -106 497 -154 507 -135 l 699 74 b 758 154 722 99 740 125 l 610 257 b 442 156 569 194 524 156 b 272 294 360 156 292 207 l 785 294 b 436 714 799 536 663 714 b 76 349 244 714 76 560 z m 438 542 b 583 425 526 542 574 485 l 279 425 b 438 542 304 499 365 542 z "},"ð":{"ha":861,"x_min":0,"x_max":0,"o":"m 431 701 b 56 349 228 701 56 558 b 431 -17 56 139 228 -17 b 806 386 635 -17 806 136 b 581 892 806 576 718 747 l 665 925 l 665 1085 l 458 1003 b 243 1146 393 1056 319 1104 l 115 1025 b 272 931 171 996 224 964 l 157 885 l 157 725 l 406 822 b 522 683 453 778 493 731 b 431 701 496 694 464 701 z m 431 167 b 264 349 336 167 264 240 b 431 531 264 457 336 531 b 597 349 526 531 597 457 b 431 167 597 240 526 167 z "},"ğ":{"ha":861,"x_min":0,"x_max":0,"o":"m 446 824 b 699 1076 581 824 696 919 l 528 1076 b 446 976 525 1017 497 976 b 363 1076 394 976 365 1017 l 193 1076 b 446 824 196 919 311 824 z m 786 -11 l 786 697 l 575 697 l 575 629 b 371 714 536 675 463 714 b 35 349 182 714 35 557 b 371 -17 35 140 182 -17 b 575 68 463 -17 536 22 l 575 -21 b 407 -187 575 -125 504 -187 b 247 -44 319 -187 254 -132 l 42 -44 b 407 -364 51 -243 214 -364 b 786 -11 610 -364 786 -219 z m 243 349 b 414 532 243 456 317 532 b 582 349 510 532 582 456 b 414 165 582 242 510 165 b 243 349 317 165 243 242 z "},"ĝ":{"ha":861,"x_min":0,"x_max":0,"o":"m 446 1122 l 156 806 l 346 806 l 446 915 l 546 806 l 736 806 z m 786 -11 l 786 697 l 575 697 l 575 629 b 371 714 536 675 463 714 b 35 349 182 714 35 557 b 371 -17 35 140 182 -17 b 575 68 463 -17 536 22 l 575 -21 b 407 -187 575 -125 504 -187 b 247 -44 319 -187 254 -132 l 42 -44 b 407 -364 51 -243 214 -364 b 786 -11 610 -364 786 -219 z m 243 349 b 414 532 243 456 317 532 b 582 349 510 532 582 456 b 414 165 582 242 510 165 b 243 349 317 165 243 242 z "},"ģ":{"ha":861,"x_min":0,"x_max":0,"o":"m 354 806 l 531 806 l 531 936 l 722 936 l 722 1096 l 354 1096 z m 786 -11 l 786 697 l 575 697 l 575 629 b 371 714 536 675 463 714 b 35 349 182 714 35 557 b 371 -17 35 140 182 -17 b 575 68 463 -17 536 22 l 575 -21 b 407 -187 575 -125 504 -187 b 247 -44 319 -187 254 -132 l 42 -44 b 407 -364 51 -243 214 -364 b 786 -11 610 -364 786 -219 z m 243 349 b 414 532 243 456 317 532 b 582 349 510 532 582 456 b 414 165 582 242 510 165 b 243 349 317 165 243 242 z "},"ġ":{"ha":861,"x_min":0,"x_max":0,"o":"m 446 832 b 585 968 522 832 585 892 b 446 1107 585 1046 522 1107 b 307 968 369 1107 307 1046 b 446 832 307 892 369 832 z m 786 -11 l 786 697 l 575 697 l 575 629 b 371 714 536 675 463 714 b 35 349 182 714 35 557 b 371 -17 35 140 182 -17 b 575 68 463 -17 536 22 l 575 -21 b 407 -187 575 -125 504 -187 b 247 -44 319 -187 254 -132 l 42 -44 b 407 -364 51 -243 214 -364 b 786 -11 610 -364 786 -219 z m 243 349 b 414 532 243 456 317 532 b 582 349 510 532 582 456 b 414 165 582 242 510 165 b 243 349 317 165 243 242 z "},"ß":{"ha":861,"x_min":0,"x_max":0,"o":"m 410 515 b 618 351 529 515 618 460 b 410 186 618 244 532 186 l 410 -3 b 824 349 619 -4 824 115 b 622 638 824 486 739 586 b 763 875 692 678 763 757 b 439 1164 763 1039 636 1164 b 93 819 232 1164 93 1011 l 93 0 l 301 0 l 301 813 b 439 979 301 913 353 979 b 567 856 514 979 567 928 b 410 713 567 772 499 713 z "},"ħ":{"ha":861,"x_min":0,"x_max":0,"o":"m 551 400 l 551 0 l 763 0 l 763 458 b 510 714 763 610 668 714 b 315 628 425 714 357 678 l 315 856 l 522 856 l 522 1024 l 315 1024 l 315 1119 l 104 1119 l 104 1024 l 26 1024 l 26 856 l 104 856 l 104 0 l 315 0 l 315 383 b 438 525 315 465 361 525 b 551 400 510 525 551 472 z "},"ĥ":{"ha":861,"x_min":0,"x_max":0,"o":"m 433 1479 l 125 1176 l 328 1176 l 433 1283 l 539 1176 l 742 1176 z m 551 400 l 551 0 l 763 0 l 763 458 b 510 714 763 610 668 714 b 315 628 425 714 357 678 l 315 1119 l 104 1119 l 104 0 l 315 0 l 315 383 b 438 525 315 465 361 525 b 551 400 510 525 551 472 z "},"ı":{"ha":861,"x_min":0,"x_max":0,"o":"m 92 0 l 803 0 l 803 169 l 553 169 l 553 697 l 92 697 l 92 528 l 342 528 l 342 169 l 92 169 z "},"í":{"ha":861,"x_min":0,"x_max":0,"o":"m 321 810 l 539 810 l 728 1076 l 511 1076 z m 92 0 l 803 0 l 803 169 l 553 169 l 553 697 l 92 697 l 92 528 l 342 528 l 342 169 l 92 169 z "},"ĭ":{"ha":861,"x_min":0,"x_max":0,"o":"m 440 824 b 693 1076 575 824 690 919 l 522 1076 b 440 976 519 1017 492 976 b 357 1076 389 976 360 1017 l 188 1076 b 440 824 190 919 306 824 z m 92 0 l 803 0 l 803 169 l 553 169 l 553 697 l 92 697 l 92 528 l 342 528 l 342 169 l 92 169 z "},"î":{"ha":861,"x_min":0,"x_max":0,"o":"m 440 1122 l 150 806 l 340 806 l 440 915 l 540 806 l 731 806 z m 92 0 l 803 0 l 803 169 l 553 169 l 553 697 l 92 697 l 92 528 l 342 528 l 342 169 l 92 169 z "},"ï":{"ha":861,"x_min":0,"x_max":0,"o":"m 272 842 b 407 974 346 842 407 900 b 272 1107 407 1047 346 1107 b 139 974 200 1107 139 1047 b 272 842 139 900 200 842 z m 608 842 b 742 974 681 842 742 900 b 608 1107 742 1047 681 1107 b 474 974 535 1107 474 1047 b 608 842 474 900 535 842 z m 92 0 l 803 0 l 803 169 l 553 169 l 553 697 l 92 697 l 92 528 l 342 528 l 342 169 l 92 169 z "},"ì":{"ha":861,"x_min":0,"x_max":0,"o":"m 553 810 l 363 1076 l 146 1076 l 335 810 z m 92 0 l 803 0 l 803 169 l 553 169 l 553 697 l 92 697 l 92 528 l 342 528 l 342 169 l 92 169 z "},"ī":{"ha":861,"x_min":0,"x_max":0,"o":"m 204 861 l 676 861 l 676 1029 l 204 1029 z m 92 0 l 803 0 l 803 169 l 553 169 l 553 697 l 92 697 l 92 528 l 342 528 l 342 169 l 92 169 z "},"į":{"ha":861,"x_min":0,"x_max":0,"o":"m 426 832 b 565 968 501 832 565 892 b 426 1107 565 1046 501 1107 b 288 968 350 1107 288 1046 b 426 832 288 892 350 832 z m 92 0 l 386 0 l 339 -50 b 267 -204 289 -99 267 -150 b 443 -364 267 -301 340 -364 b 642 -168 558 -364 632 -285 l 499 -168 b 456 -215 494 -197 479 -215 b 417 -174 435 -215 417 -200 b 447 -112 417 -153 426 -135 l 553 0 l 803 0 l 803 169 l 553 169 l 553 697 l 92 697 l 92 528 l 342 528 l 342 169 l 92 169 z "},"ĩ":{"ha":861,"x_min":0,"x_max":0,"o":"m 578 1069 b 522 992 578 1018 554 992 b 326 1075 469 992 425 1075 b 147 829 215 1075 147 967 l 303 829 b 357 908 303 881 326 908 b 553 825 413 908 456 825 b 733 1069 664 825 733 933 z m 92 0 l 803 0 l 803 169 l 553 169 l 553 697 l 92 697 l 92 528 l 342 528 l 342 169 l 92 169 z "},"ĳ":{"ha":1722,"x_min":0,"x_max":0,"o":"m 532 832 b 671 968 607 832 671 892 b 532 1107 671 1046 607 1107 b 393 968 456 1107 393 1046 b 532 832 393 892 456 832 z m 1231 968 b 1369 832 1231 892 1293 832 b 1508 968 1446 832 1508 892 b 1369 1107 1508 1046 1446 1107 b 1231 968 1293 1107 1231 1046 z m 197 0 l 908 0 l 908 169 l 658 169 l 658 697 l 197 697 l 197 528 l 447 528 l 447 169 l 197 169 z m 1264 -349 l 1475 -349 l 1475 697 l 899 697 l 899 528 l 1264 528 z "},"ȷ":{"ha":861,"x_min":0,"x_max":0,"o":"m 74 528 l 439 528 l 439 -349 l 650 -349 l 650 697 l 74 697 z "},"ĵ":{"ha":861,"x_min":0,"x_max":0,"o":"m 538 1122 l 247 806 l 438 806 l 538 915 l 638 806 l 828 806 z m 74 528 l 439 528 l 439 -349 l 650 -349 l 650 697 l 74 697 z "},"ķ":{"ha":861,"x_min":0,"x_max":0,"o":"m 603 0 l 854 0 l 531 372 l 835 697 l 585 697 l 317 401 l 317 1119 l 107 1119 l 107 0 l 317 0 l 317 332 z m 549 -60 l 372 -60 l 372 -190 l 181 -190 l 181 -350 l 549 -350 z "},"ĸ":{"ha":861,"x_min":0,"x_max":0,"o":"m 603 0 l 854 0 l 531 372 l 835 697 l 585 697 l 317 401 l 317 697 l 107 697 l 107 0 l 317 0 l 317 332 z "},"ĺ":{"ha":861,"x_min":0,"x_max":0,"o":"m 325 1182 l 547 1182 l 771 1449 l 549 1449 z m 92 0 l 803 0 l 803 169 l 553 169 l 553 1119 l 92 1119 l 92 950 l 342 950 l 342 169 l 92 169 z "},"ľ":{"ha":861,"x_min":0,"x_max":0,"o":"m 92 0 l 803 0 l 803 169 l 553 169 l 553 1119 l 92 1119 l 92 950 l 342 950 l 342 169 l 92 169 z m 604 760 l 789 760 l 886 1119 l 703 1119 z "},"ļ":{"ha":861,"x_min":0,"x_max":0,"o":"m 92 0 l 803 0 l 803 169 l 553 169 l 553 1119 l 92 1119 l 92 950 l 342 950 l 342 169 l 92 169 z m 536 -60 l 360 -60 l 360 -190 l 168 -190 l 168 -350 l 536 -350 z "},"ŀ":{"ha":861,"x_min":0,"x_max":0,"o":"m 92 0 l 803 0 l 803 169 l 553 169 l 553 1119 l 92 1119 l 92 950 l 342 950 l 342 169 l 92 169 z m 879 460 b 1018 596 956 460 1018 519 b 879 735 1018 674 956 735 b 740 596 803 735 740 674 b 879 460 740 519 803 460 z "},"ł":{"ha":861,"x_min":0,"x_max":0,"o":"m 92 0 l 803 0 l 803 169 l 553 169 l 553 519 l 800 625 l 800 808 l 553 703 l 553 1119 l 92 1119 l 92 950 l 342 950 l 342 625 l 92 519 l 92 336 l 342 443 l 342 169 l 92 169 z "},"ń":{"ha":861,"x_min":0,"x_max":0,"o":"m 303 810 l 521 810 l 710 1076 l 493 1076 z m 551 400 l 551 0 l 763 0 l 763 458 b 510 714 763 610 668 714 b 315 628 425 714 357 678 l 315 697 l 104 697 l 104 0 l 315 0 l 315 383 b 438 525 315 465 361 525 b 551 400 510 525 551 472 z "},"ň":{"ha":861,"x_min":0,"x_max":0,"o":"m 422 783 l 713 1100 l 522 1100 l 422 990 l 322 1100 l 132 1100 z m 551 400 l 551 0 l 763 0 l 763 458 b 510 714 763 610 668 714 b 315 628 425 714 357 678 l 315 697 l 104 697 l 104 0 l 315 0 l 315 383 b 438 525 315 465 361 525 b 551 400 510 525 551 472 z "},"ņ":{"ha":861,"x_min":0,"x_max":0,"o":"m 551 400 l 551 0 l 763 0 l 763 458 b 510 714 763 610 668 714 b 315 628 425 714 357 678 l 315 697 l 104 697 l 104 0 l 315 0 l 315 383 b 438 525 315 465 361 525 b 551 400 510 525 551 472 z m 522 -60 l 346 -60 l 346 -190 l 154 -190 l 154 -350 l 522 -350 z "},"ñ":{"ha":861,"x_min":0,"x_max":0,"o":"m 560 1069 b 504 992 560 1018 536 992 b 308 1075 451 992 407 1075 b 129 829 197 1075 129 967 l 285 829 b 339 908 285 881 308 908 b 535 825 394 908 438 825 b 715 1069 646 825 715 933 z m 551 400 l 551 0 l 763 0 l 763 458 b 510 714 763 610 668 714 b 315 628 425 714 357 678 l 315 697 l 104 697 l 104 0 l 315 0 l 315 383 b 438 525 315 465 361 525 b 551 400 510 525 551 472 z "},"ŋ":{"ha":861,"x_min":0,"x_max":0,"o":"m 551 400 l 551 -349 l 763 -349 l 763 458 b 510 714 763 610 668 714 b 315 628 425 714 357 678 l 315 697 l 104 697 l 104 0 l 315 0 l 315 383 b 438 525 315 465 361 525 b 551 400 510 525 551 472 z "},"ó":{"ha":861,"x_min":0,"x_max":0,"o":"m 311 810 l 529 810 l 718 1076 l 501 1076 z m 56 349 b 431 -17 56 139 226 -17 b 806 349 635 -17 806 139 b 431 714 806 558 635 714 b 56 349 226 714 56 558 z m 264 349 b 431 531 264 457 336 531 b 597 349 525 531 597 457 b 431 167 597 240 525 167 b 264 349 336 167 264 240 z "},"ŏ":{"ha":861,"x_min":0,"x_max":0,"o":"m 431 824 b 683 1076 565 824 681 919 l 513 1076 b 431 976 510 1017 482 976 b 347 1076 379 976 350 1017 l 178 1076 b 431 824 181 919 296 824 z m 56 349 b 431 -17 56 139 226 -17 b 806 349 635 -17 806 139 b 431 714 806 558 635 714 b 56 349 226 714 56 558 z m 264 349 b 431 531 264 457 336 531 b 597 349 525 531 597 457 b 431 167 597 240 525 167 b 264 349 336 167 264 240 z "},"ô":{"ha":861,"x_min":0,"x_max":0,"o":"m 431 1122 l 140 806 l 331 806 l 431 915 l 531 806 l 721 806 z m 56 349 b 431 -17 56 139 226 -17 b 806 349 635 -17 806 139 b 431 714 806 558 635 714 b 56 349 226 714 56 558 z m 264 349 b 431 531 264 457 336 531 b 597 349 525 531 597 457 b 431 167 597 240 525 167 b 264 349 336 167 264 240 z "},"ö":{"ha":861,"x_min":0,"x_max":0,"o":"m 263 842 b 397 974 336 842 397 900 b 263 1107 397 1047 336 1107 b 129 974 190 1107 129 1047 b 263 842 129 900 190 842 z m 599 842 b 732 974 671 842 732 900 b 599 1107 732 1047 671 1107 b 464 974 525 1107 464 1047 b 599 842 464 900 525 842 z m 56 349 b 431 -17 56 139 226 -17 b 806 349 635 -17 806 139 b 431 714 806 558 635 714 b 56 349 226 714 56 558 z m 264 349 b 431 531 264 457 336 531 b 597 349 525 531 597 457 b 431 167 597 240 525 167 b 264 349 336 167 264 240 z "},"ò":{"ha":861,"x_min":0,"x_max":0,"o":"m 543 810 l 353 1076 l 136 1076 l 325 810 z m 56 349 b 431 -17 56 139 226 -17 b 806 349 635 -17 806 139 b 431 714 806 558 635 714 b 56 349 226 714 56 558 z m 264 349 b 431 531 264 457 336 531 b 597 349 525 531 597 457 b 431 167 597 240 525 167 b 264 349 336 167 264 240 z "},"ő":{"ha":861,"x_min":0,"x_max":0,"o":"m 185 810 l 382 810 l 569 1076 l 372 1076 z m 475 810 l 672 810 l 860 1076 l 663 1076 z m 56 349 b 431 -17 56 139 226 -17 b 806 349 635 -17 806 139 b 431 714 806 558 635 714 b 56 349 226 714 56 558 z m 264 349 b 431 531 264 457 336 531 b 597 349 525 531 597 457 b 431 167 597 240 525 167 b 264 349 336 167 264 240 z "},"ō":{"ha":861,"x_min":0,"x_max":0,"o":"m 194 861 l 667 861 l 667 1029 l 194 1029 z m 56 349 b 431 -17 56 139 226 -17 b 806 349 635 -17 806 139 b 431 714 806 558 635 714 b 56 349 226 714 56 558 z m 264 349 b 431 531 264 457 336 531 b 597 349 525 531 597 457 b 431 167 597 240 525 167 b 264 349 336 167 264 240 z "},"ø":{"ha":861,"x_min":0,"x_max":0,"o":"m 56 349 b 117 147 56 272 78 204 l 14 43 l 111 -50 l 211 50 b 431 -17 274 8 350 -17 b 806 349 635 -17 806 139 b 744 550 806 425 783 493 l 847 654 l 750 747 l 650 647 b 431 714 588 689 511 714 b 56 349 226 714 56 558 z m 254 349 b 431 542 254 463 331 542 b 511 522 460 542 488 535 l 267 272 b 254 349 258 294 254 321 z m 607 349 b 431 156 607 235 531 156 b 350 175 401 156 374 163 l 594 425 b 607 349 603 403 607 376 z "},"ǿ":{"ha":861,"x_min":0,"x_max":0,"o":"m 311 810 l 529 810 l 718 1076 l 501 1076 z m 56 349 b 117 147 56 272 78 204 l 14 43 l 111 -50 l 211 50 b 431 -17 274 8 350 -17 b 806 349 635 -17 806 139 b 744 550 806 425 783 493 l 847 654 l 750 747 l 650 647 b 431 714 588 689 511 714 b 56 349 226 714 56 558 z m 254 349 b 431 542 254 463 331 542 b 511 522 460 542 488 535 l 267 272 b 254 349 258 294 254 321 z m 607 349 b 431 156 607 235 531 156 b 350 175 401 156 374 163 l 594 425 b 607 349 603 403 607 376 z "},"õ":{"ha":861,"x_min":0,"x_max":0,"o":"m 568 1069 b 513 992 568 1018 544 992 b 317 1075 460 992 415 1075 b 138 829 206 1075 138 967 l 293 829 b 347 908 293 881 317 908 b 543 825 403 908 446 825 b 724 1069 654 825 724 933 z m 56 349 b 431 -17 56 139 226 -17 b 806 349 635 -17 806 139 b 431 714 806 558 635 714 b 56 349 226 714 56 558 z m 264 349 b 431 531 264 457 336 531 b 597 349 525 531 597 457 b 431 167 597 240 525 167 b 264 349 336 167 264 240 z "},"œ":{"ha":861,"x_min":0,"x_max":0,"o":"m 18 349 b 268 -17 18 139 132 -17 b 444 89 338 -17 399 24 b 615 -17 489 24 550 -17 b 824 154 703 -17 781 44 l 703 257 b 611 156 681 194 656 156 b 519 294 567 156 531 207 l 842 294 b 611 714 851 536 761 714 b 443 608 547 714 488 675 b 268 714 399 675 336 714 b 18 349 132 714 18 558 z m 610 542 b 689 415 657 542 683 485 l 522 415 b 610 542 533 494 568 542 z m 183 349 b 276 531 183 457 224 531 b 369 349 329 531 369 457 b 276 167 369 240 329 167 b 183 349 224 167 183 240 z "},"ŕ":{"ha":861,"x_min":0,"x_max":0,"o":"m 311 810 l 529 810 l 718 1076 l 501 1076 z m 586 389 l 586 292 l 793 292 l 793 436 b 528 714 793 599 694 714 b 315 615 436 714 360 674 l 315 697 l 104 697 l 104 0 l 315 0 l 315 368 b 453 531 315 460 368 531 b 586 389 536 531 586 467 z "},"ř":{"ha":861,"x_min":0,"x_max":0,"o":"m 431 783 l 721 1100 l 531 1100 l 431 990 l 331 1100 l 140 1100 z m 586 389 l 586 292 l 793 292 l 793 436 b 528 714 793 599 694 714 b 315 615 436 714 360 674 l 315 697 l 104 697 l 104 0 l 315 0 l 315 368 b 453 531 315 460 368 531 b 586 389 536 531 586 467 z "},"ŗ":{"ha":861,"x_min":0,"x_max":0,"o":"m 586 389 l 586 292 l 793 292 l 793 436 b 528 714 793 599 694 714 b 315 615 436 714 360 674 l 315 697 l 104 697 l 104 0 l 315 0 l 315 368 b 453 531 315 460 368 531 b 586 389 536 531 586 467 z m 564 -60 l 388 -60 l 388 -190 l 196 -190 l 196 -350 l 564 -350 z "},"ś":{"ha":861,"x_min":0,"x_max":0,"o":"m 303 810 l 521 810 l 710 1076 l 493 1076 z m 74 114 b 414 -17 139 31 281 -17 b 749 226 600 -17 749 72 b 329 500 749 489 329 390 b 425 560 329 538 367 560 b 621 474 499 560 567 533 l 733 594 b 425 714 672 664 567 714 b 114 476 247 714 114 619 b 536 204 114 201 536 324 b 425 140 536 163 488 140 b 178 249 342 140 239 179 z "},"š":{"ha":861,"x_min":0,"x_max":0,"o":"m 422 783 l 713 1100 l 522 1100 l 422 990 l 322 1100 l 132 1100 z m 74 114 b 414 -17 139 31 281 -17 b 749 226 600 -17 749 72 b 329 500 749 489 329 390 b 425 560 329 538 367 560 b 621 474 499 560 567 533 l 733 594 b 425 714 672 664 567 714 b 114 476 247 714 114 619 b 536 204 114 201 536 324 b 425 140 536 163 488 140 b 178 249 342 140 239 179 z "},"ş":{"ha":861,"x_min":0,"x_max":0,"o":"m 74 114 b 414 -17 139 31 281 -17 b 749 226 600 -17 749 72 b 329 500 749 489 329 390 b 425 560 329 538 367 560 b 621 474 499 560 567 533 l 733 594 b 425 714 672 664 567 714 b 114 476 247 714 114 619 b 536 204 114 201 536 324 b 425 140 536 163 488 140 b 178 249 342 140 239 179 z m 132 -349 l 349 -349 l 526 -100 l 310 -100 z "},"ŝ":{"ha":861,"x_min":0,"x_max":0,"o":"m 422 1122 l 132 806 l 322 806 l 422 915 l 522 806 l 713 806 z m 74 114 b 414 -17 139 31 281 -17 b 749 226 600 -17 749 72 b 329 500 749 489 329 390 b 425 560 329 538 367 560 b 621 474 499 560 567 533 l 733 594 b 425 714 672 664 567 714 b 114 476 247 714 114 619 b 536 204 114 201 536 324 b 425 140 536 163 488 140 b 178 249 342 140 239 179 z "},"ș":{"ha":861,"x_min":0,"x_max":0,"o":"m 74 114 b 414 -17 139 31 281 -17 b 749 226 600 -17 749 72 b 329 500 749 489 329 390 b 425 560 329 538 367 560 b 621 474 499 560 567 533 l 733 594 b 425 714 672 664 567 714 b 114 476 247 714 114 619 b 536 204 114 201 536 324 b 425 140 536 163 488 140 b 178 249 342 140 239 179 z m 503 -60 l 326 -60 l 326 -190 l 135 -190 l 135 -350 l 503 -350 z "},"ŧ":{"ha":861,"x_min":0,"x_max":0,"o":"m 165 425 l 165 256 l 325 256 l 325 0 l 536 0 l 536 256 l 697 256 l 697 425 l 536 425 l 536 528 l 803 528 l 803 697 l 536 697 l 536 924 l 325 924 l 325 697 l 58 697 l 58 528 l 325 528 l 325 425 z "},"ť":{"ha":861,"x_min":0,"x_max":0,"o":"m 597 760 l 782 760 l 879 1119 l 696 1119 z m 58 528 l 325 528 l 325 0 l 536 0 l 536 528 l 803 528 l 803 697 l 536 697 l 536 924 l 325 924 l 325 697 l 58 697 z "},"ţ":{"ha":861,"x_min":0,"x_max":0,"o":"m 58 528 l 325 528 l 325 0 l 536 0 l 536 528 l 803 528 l 803 697 l 536 697 l 536 924 l 325 924 l 325 697 l 58 697 z m 150 -349 l 367 -349 l 544 -100 l 328 -100 z "},"ț":{"ha":861,"x_min":0,"x_max":0,"o":"m 58 528 l 325 528 l 325 0 l 536 0 l 536 528 l 803 528 l 803 697 l 536 697 l 536 924 l 325 924 l 325 697 l 58 697 z m 519 -60 l 343 -60 l 343 -190 l 151 -190 l 151 -350 l 519 -350 z "},"þ":{"ha":861,"x_min":0,"x_max":0,"o":"m 286 1119 l 75 1119 l 75 -349 l 286 -349 l 286 68 b 492 -17 325 22 399 -17 b 828 349 681 -17 828 140 b 492 714 828 557 681 714 b 286 629 399 714 325 675 z m 618 349 b 449 165 618 242 544 165 b 279 349 351 165 279 242 b 449 532 279 456 351 532 b 618 349 544 532 618 456 z "},"ú":{"ha":861,"x_min":0,"x_max":0,"o":"m 311 810 l 529 810 l 718 1076 l 501 1076 z m 431 165 b 308 303 354 165 308 217 l 308 697 l 97 697 l 97 296 b 431 -17 97 106 238 -17 b 764 294 624 -17 764 106 l 764 697 l 553 697 l 553 303 b 431 165 553 217 507 165 z "},"ŭ":{"ha":861,"x_min":0,"x_max":0,"o":"m 431 824 b 683 1076 565 824 681 919 l 513 1076 b 431 976 510 1017 482 976 b 347 1076 379 976 350 1017 l 178 1076 b 431 824 181 919 296 824 z m 431 165 b 308 303 354 165 308 217 l 308 697 l 97 697 l 97 296 b 431 -17 97 106 238 -17 b 764 294 624 -17 764 106 l 764 697 l 553 697 l 553 303 b 431 165 553 217 507 165 z "},"û":{"ha":861,"x_min":0,"x_max":0,"o":"m 431 1122 l 140 806 l 331 806 l 431 915 l 531 806 l 721 806 z m 431 165 b 308 303 354 165 308 217 l 308 697 l 97 697 l 97 296 b 431 -17 97 106 238 -17 b 764 294 624 -17 764 106 l 764 697 l 553 697 l 553 303 b 431 165 553 217 507 165 z "},"ü":{"ha":861,"x_min":0,"x_max":0,"o":"m 263 842 b 397 974 336 842 397 900 b 263 1107 397 1047 336 1107 b 129 974 190 1107 129 1047 b 263 842 129 900 190 842 z m 599 842 b 732 974 671 842 732 900 b 599 1107 732 1047 671 1107 b 464 974 525 1107 464 1047 b 599 842 464 900 525 842 z m 431 165 b 308 303 354 165 308 217 l 308 697 l 97 697 l 97 296 b 431 -17 97 106 238 -17 b 764 294 624 -17 764 106 l 764 697 l 553 697 l 553 303 b 431 165 553 217 507 165 z "},"ù":{"ha":861,"x_min":0,"x_max":0,"o":"m 543 810 l 353 1076 l 136 1076 l 325 810 z m 431 165 b 308 303 354 165 308 217 l 308 697 l 97 697 l 97 296 b 431 -17 97 106 238 -17 b 764 294 624 -17 764 106 l 764 697 l 553 697 l 553 303 b 431 165 553 217 507 165 z "},"ű":{"ha":861,"x_min":0,"x_max":0,"o":"m 185 810 l 382 810 l 569 1076 l 372 1076 z m 475 810 l 672 810 l 860 1076 l 663 1076 z m 431 165 b 308 303 354 165 308 217 l 308 697 l 97 697 l 97 296 b 431 -17 97 106 238 -17 b 764 294 624 -17 764 106 l 764 697 l 553 697 l 553 303 b 431 165 553 217 507 165 z "},"ū":{"ha":861,"x_min":0,"x_max":0,"o":"m 194 861 l 667 861 l 667 1029 l 194 1029 z m 431 165 b 308 303 354 165 308 217 l 308 697 l 97 697 l 97 296 b 431 -17 97 106 238 -17 b 764 294 624 -17 764 106 l 764 697 l 553 697 l 553 303 b 431 165 553 217 507 165 z "},"ų":{"ha":861,"x_min":0,"x_max":0,"o":"m 431 165 b 308 303 354 165 308 217 l 308 697 l 97 697 l 97 296 b 372 -12 97 125 210 10 l 333 -53 b 267 -204 289 -96 267 -151 b 443 -364 267 -301 340 -364 b 642 -168 558 -364 632 -285 l 499 -168 b 456 -215 494 -197 479 -215 b 417 -174 435 -215 417 -200 b 447 -112 417 -153 426 -135 l 554 1 b 764 294 681 43 764 149 l 764 697 l 553 697 l 553 303 b 431 165 553 217 507 165 z "},"ů":{"ha":861,"x_min":0,"x_max":0,"o":"m 201 1007 b 431 781 201 879 304 781 b 660 1007 557 781 660 879 b 431 1235 660 1135 557 1235 b 201 1007 304 1235 201 1135 z m 431 932 b 356 1007 389 932 356 965 b 431 1082 356 1050 389 1082 b 506 1007 472 1082 506 1050 b 431 932 506 965 472 932 z m 431 165 b 308 303 354 165 308 217 l 308 697 l 97 697 l 97 296 b 431 -17 97 106 238 -17 b 764 294 624 -17 764 106 l 764 697 l 553 697 l 553 303 b 431 165 553 217 507 165 z "},"ũ":{"ha":861,"x_min":0,"x_max":0,"o":"m 568 1069 b 513 992 568 1018 544 992 b 317 1075 460 992 415 1075 b 138 829 206 1075 138 967 l 293 829 b 347 908 293 881 317 908 b 543 825 403 908 446 825 b 724 1069 654 825 724 933 z m 431 165 b 308 303 354 165 308 217 l 308 697 l 97 697 l 97 296 b 431 -17 97 106 238 -17 b 764 294 624 -17 764 106 l 764 697 l 553 697 l 553 303 b 431 165 553 217 507 165 z "},"ẃ":{"ha":861,"x_min":0,"x_max":0,"o":"m 311 810 l 529 810 l 718 1076 l 501 1076 z m 432 725 l 294 396 l 197 697 l 0 697 l 253 -40 l 431 353 l 608 -40 l 861 697 l 667 697 l 569 396 z "},"ŵ":{"ha":861,"x_min":0,"x_max":0,"o":"m 431 1122 l 140 806 l 331 806 l 431 915 l 531 806 l 721 806 z m 432 725 l 294 396 l 197 697 l 0 697 l 253 -40 l 431 353 l 608 -40 l 861 697 l 667 697 l 569 396 z "},"ẁ":{"ha":861,"x_min":0,"x_max":0,"o":"m 543 810 l 353 1076 l 136 1076 l 325 810 z m 432 725 l 294 396 l 197 697 l 0 697 l 253 -40 l 431 353 l 608 -40 l 861 697 l 667 697 l 569 396 z "},"ẅ":{"ha":861,"x_min":0,"x_max":0,"o":"m 263 842 b 397 974 336 842 397 900 b 263 1107 397 1047 336 1107 b 129 974 190 1107 129 1047 b 263 842 129 900 190 842 z m 599 842 b 732 974 671 842 732 900 b 599 1107 732 1047 671 1107 b 464 974 525 1107 464 1047 b 599 842 464 900 525 842 z m 432 725 l 294 396 l 197 697 l 0 697 l 253 -40 l 431 353 l 608 -40 l 861 697 l 667 697 l 569 396 z "},"ý":{"ha":861,"x_min":0,"x_max":0,"o":"m 315 810 l 533 810 l 722 1076 l 506 1076 z m 68 -349 l 288 -349 l 843 697 l 619 697 l 438 351 l 256 697 l 25 697 l 325 139 z "},"ŷ":{"ha":861,"x_min":0,"x_max":0,"o":"m 435 1122 l 144 806 l 335 806 l 435 915 l 535 806 l 725 806 z m 68 -349 l 288 -349 l 843 697 l 619 697 l 438 351 l 256 697 l 25 697 l 325 139 z "},"ÿ":{"ha":861,"x_min":0,"x_max":0,"o":"m 267 842 b 401 974 340 842 401 900 b 267 1107 401 1047 340 1107 b 133 974 194 1107 133 1047 b 267 842 133 900 194 842 z m 603 842 b 736 974 675 842 736 900 b 603 1107 736 1047 675 1107 b 468 974 529 1107 468 1047 b 603 842 468 900 529 842 z m 68 -349 l 288 -349 l 843 697 l 619 697 l 438 351 l 256 697 l 25 697 l 325 139 z "},"ỳ":{"ha":861,"x_min":0,"x_max":0,"o":"m 547 810 l 357 1076 l 140 1076 l 329 810 z m 68 -349 l 288 -349 l 843 697 l 619 697 l 438 351 l 256 697 l 25 697 l 325 139 z "},"ź":{"ha":861,"x_min":0,"x_max":0,"o":"m 304 810 l 522 810 l 711 1076 l 494 1076 z m 444 528 l 67 0 l 775 0 l 775 169 l 401 169 l 781 697 l 92 697 l 92 528 z "},"ž":{"ha":861,"x_min":0,"x_max":0,"o":"m 424 783 l 714 1100 l 524 1100 l 424 990 l 324 1100 l 133 1100 z m 444 528 l 67 0 l 775 0 l 775 169 l 401 169 l 781 697 l 92 697 l 92 528 z "},"ż":{"ha":861,"x_min":0,"x_max":0,"o":"m 424 832 b 563 968 500 832 563 892 b 424 1107 563 1046 500 1107 b 285 968 347 1107 285 1046 b 424 832 285 892 347 832 z m 444 528 l 67 0 l 775 0 l 775 169 l 401 169 l 781 697 l 92 697 l 92 528 z "},"º":{"ha":861,"x_min":0,"x_max":0,"o":"m 156 794 b 431 531 156 640 282 531 b 706 794 579 531 706 640 b 431 1058 706 949 579 1058 b 156 794 282 1058 156 949 z m 328 794 b 431 911 328 865 371 911 b 533 794 490 911 533 865 b 431 678 533 725 490 678 b 328 794 371 678 328 725 z m 179 250 l 679 250 l 679 399 l 179 399 z "},"ª":{"ha":861,"x_min":0,"x_max":0,"o":"m 521 1047 l 521 1010 b 382 1058 494 1033 447 1058 b 143 794 249 1058 143 947 b 382 531 143 643 249 531 b 521 581 447 531 494 556 l 521 543 l 694 543 l 694 1047 z m 314 794 b 421 911 314 864 360 911 b 525 794 481 911 525 864 b 421 679 525 726 481 679 b 314 794 360 679 314 726 z m 165 250 l 694 250 l 694 399 l 165 399 z "},"&":{"ha":861,"x_min":0,"x_max":0,"o":"m 860 163 b 711 306 778 163 711 225 b 860 449 711 388 778 449 l 860 629 b 603 504 758 629 663 579 b 535 557 585 529 558 546 b 644 776 596 599 644 676 b 351 1064 644 946 510 1064 b 58 776 192 1064 58 946 b 168 557 58 676 107 599 b 6 301 93 522 6 431 b 351 -17 6 115 161 -17 b 611 96 456 -17 549 25 b 860 -17 671 25 763 -17 z m 351 653 b 232 771 285 653 232 706 b 351 890 232 838 285 890 b 469 771 418 890 469 838 b 351 653 469 706 418 653 z m 351 165 b 201 317 269 165 201 229 b 351 468 201 404 269 468 b 501 317 433 468 501 404 b 351 165 501 229 433 165 z "},"`":{"ha":861,"x_min":0,"x_max":0,"o":"m 635 810 l 444 1076 l 228 1076 l 417 810 z "},"´":{"ha":861,"x_min":0,"x_max":0,"o":"m 226 810 l 444 810 l 633 1076 l 417 1076 z "},"ˆ":{"ha":861,"x_min":0,"x_max":0,"o":"m 431 1122 l 140 806 l 331 806 l 431 915 l 531 806 l 721 806 z "},"˜":{"ha":861,"x_min":0,"x_max":0,"o":"m 568 1069 b 513 992 568 1018 544 992 b 317 1075 460 992 415 1075 b 138 829 206 1075 138 967 l 293 829 b 347 908 293 881 317 908 b 543 825 403 908 446 825 b 724 1069 654 825 724 933 z "},"¯":{"ha":861,"x_min":0,"x_max":0,"o":"m 194 861 l 667 861 l 667 1029 l 194 1029 z "},"˘":{"ha":861,"x_min":0,"x_max":0,"o":"m 431 824 b 683 1076 565 824 681 919 l 513 1076 b 431 976 510 1017 482 976 b 347 1076 379 976 350 1017 l 178 1076 b 431 824 181 919 296 824 z "},"˙":{"ha":861,"x_min":0,"x_max":0,"o":"m 431 832 b 569 968 507 832 569 892 b 431 1107 569 1046 507 1107 b 292 968 354 1107 292 1046 b 431 832 292 892 354 832 z "},"¨":{"ha":861,"x_min":0,"x_max":0,"o":"m 263 842 b 397 974 336 842 397 900 b 263 1107 397 1047 336 1107 b 129 974 190 1107 129 1047 b 263 842 129 900 190 842 z m 599 842 b 732 974 671 842 732 900 b 599 1107 732 1047 671 1107 b 464 974 525 1107 464 1047 b 599 842 464 900 525 842 z "},"˚":{"ha":861,"x_min":0,"x_max":0,"o":"m 201 1007 b 431 781 201 879 304 781 b 660 1007 557 781 660 879 b 431 1235 660 1135 557 1235 b 201 1007 304 1235 201 1135 z m 431 932 b 356 1007 389 932 356 965 b 431 1082 356 1050 389 1082 b 506 1007 472 1082 506 1050 b 431 932 506 965 472 932 z "},"˝":{"ha":861,"x_min":0,"x_max":0,"o":"m 93 810 l 290 810 l 478 1076 l 281 1076 z m 383 810 l 581 810 l 768 1076 l 571 1076 z "},"ˇ":{"ha":861,"x_min":0,"x_max":0,"o":"m 431 783 l 721 1100 l 531 1100 l 431 990 l 331 1100 l 140 1100 z "},"":{"ha":861,"x_min":0,"x_max":0,"o":"m 614 -60 l 438 -60 l 438 -190 l 246 -190 l 246 -350 l 614 -350 z "},"¸":{"ha":861,"x_min":0,"x_max":0,"o":"m 242 -349 l 458 -349 l 636 -100 l 419 -100 z "},"˛":{"ha":861,"x_min":0,"x_max":0,"o":"m 375 14 l 315 -50 b 243 -204 265 -99 243 -150 b 419 -364 243 -301 317 -364 b 618 -168 535 -364 608 -285 l 475 -168 b 432 -215 471 -197 456 -215 b 393 -174 411 -215 393 -200 b 424 -112 393 -153 403 -135 l 529 0 z "},".":{"ha":861,"x_min":0,"x_max":0,"o":"m 278 142 b 431 -11 278 56 346 -11 b 583 142 515 -11 583 56 b 431 293 583 225 515 293 b 278 142 346 293 278 225 z "},",":{"ha":861,"x_min":0,"x_max":0,"o":"m 113 -275 l 340 -275 l 625 199 l 397 199 z "},":":{"ha":861,"x_min":0,"x_max":0,"o":"m 278 578 b 431 425 278 492 346 425 b 583 578 515 425 583 492 b 431 729 583 661 515 729 b 278 578 346 729 278 661 z m 278 142 b 431 -11 278 56 346 -11 b 583 142 515 -11 583 56 b 431 293 583 225 515 293 b 278 142 346 293 278 225 z "},";":{"ha":861,"x_min":0,"x_max":0,"o":"m 278 578 b 431 425 278 492 346 425 b 583 578 515 425 583 492 b 431 729 583 661 515 729 b 278 578 346 729 278 661 z m 113 -275 l 340 -275 l 625 199 l 397 199 z "},"…":{"ha":861,"x_min":0,"x_max":0,"o":"m 22 114 b 147 -11 22 44 79 -11 b 272 114 215 -11 272 44 b 147 238 272 183 215 238 b 22 114 79 238 22 183 z m 306 114 b 431 -11 306 44 363 -11 b 556 114 499 -11 556 44 b 431 238 556 183 499 238 b 306 114 363 238 306 183 z m 589 114 b 714 -11 589 44 646 -11 b 839 114 782 -11 839 44 b 714 238 839 183 782 238 b 589 114 646 238 589 183 z "},"!":{"ha":861,"x_min":0,"x_max":0,"o":"m 319 357 l 542 357 l 542 1047 l 319 1047 z m 278 142 b 431 -11 278 56 346 -11 b 583 142 515 -11 583 56 b 431 293 583 225 515 293 b 278 142 346 293 278 225 z "},"¡":{"ha":861,"x_min":0,"x_max":0,"o":"m 583 572 b 431 725 583 658 515 725 b 278 572 346 725 278 658 b 431 421 278 489 346 421 b 583 572 515 421 583 489 z m 542 357 l 319 357 l 319 -333 l 542 -333 z "},"?":{"ha":861,"x_min":0,"x_max":0,"o":"m 372 519 b 729 822 372 640 729 564 b 440 1064 729 967 603 1064 b 133 785 269 1064 135 947 l 342 785 b 438 893 340 856 383 893 b 519 821 489 893 519 861 b 171 519 519 694 171 771 b 429 297 171 379 290 297 b 694 532 581 297 689 403 l 500 532 b 435 461 497 486 475 461 b 372 519 400 461 372 483 z m 290 122 b 425 -11 290 47 351 -11 b 558 122 499 -11 558 47 b 425 256 558 196 499 256 b 290 122 351 256 290 196 z "},"¿":{"ha":861,"x_min":0,"x_max":0,"o":"m 571 593 b 436 726 571 668 510 726 b 303 593 363 726 303 668 b 436 460 303 519 363 460 b 571 593 510 460 571 519 z m 489 196 b 132 -107 489 75 132 151 b 421 -349 132 -251 258 -349 b 728 -69 592 -349 726 -232 l 519 -69 b 424 -178 521 -140 478 -178 b 342 -106 372 -178 342 -146 b 690 196 342 21 690 -56 b 432 418 690 336 571 418 b 167 183 281 418 172 313 l 361 183 b 426 254 364 229 386 254 b 489 196 461 254 489 232 z "},"‘":{"ha":861,"x_min":0,"x_max":0,"o":"m 174 574 l 401 574 l 686 1047 l 458 1047 z "},"’":{"ha":861,"x_min":0,"x_max":0,"o":"m 174 574 l 401 574 l 686 1047 l 458 1047 z "},"“":{"ha":861,"x_min":0,"x_max":0,"o":"m 511 1047 l 310 1047 l 26 575 l 226 575 z m 835 1047 l 635 1047 l 350 575 l 550 575 z "},"”":{"ha":861,"x_min":0,"x_max":0,"o":"m 511 1047 l 310 1047 l 26 575 l 226 575 z m 835 1047 l 635 1047 l 350 575 l 550 575 z "},"‚":{"ha":861,"x_min":0,"x_max":0,"o":"m 149 -208 l 376 -208 l 661 265 l 433 265 z "},"„":{"ha":861,"x_min":0,"x_max":0,"o":"m 508 265 l 307 265 l 24 -207 l 224 -207 z m 832 265 l 632 265 l 347 -207 l 547 -207 z "},"‹":{"ha":861,"x_min":0,"x_max":0,"o":"m 618 224 l 465 376 l 618 529 l 508 640 l 243 376 l 508 113 z "},"›":{"ha":861,"x_min":0,"x_max":0,"o":"m 243 224 l 353 113 l 618 376 l 353 640 l 243 529 l 396 376 z "},"«":{"ha":861,"x_min":0,"x_max":0,"o":"m 449 224 l 296 376 l 449 529 l 339 640 l 74 376 l 339 113 z m 788 224 l 635 376 l 788 529 l 678 640 l 413 376 l 678 113 z "},"»":{"ha":861,"x_min":0,"x_max":0,"o":"m 413 224 l 522 113 l 788 376 l 522 640 l 413 529 l 565 376 z m 74 224 l 183 113 l 449 376 l 183 640 l 74 529 l 226 376 z "},"/":{"ha":861,"x_min":0,"x_max":0,"o":"m 51 -208 l 263 -208 l 810 1119 l 599 1119 z "},"\\":{"ha":861,"x_min":0,"x_max":0,"o":"m 810 -208 l 263 1119 l 51 1119 l 599 -208 z "},"|":{"ha":861,"x_min":0,"x_max":0,"o":"m 331 -208 l 531 -208 l 531 1147 l 331 1147 z "},"·":{"ha":861,"x_min":0,"x_max":0,"o":"m 278 378 b 431 225 278 292 346 225 b 583 378 515 225 583 292 b 431 529 583 461 515 529 b 278 378 346 529 278 461 z "},"•":{"ha":861,"x_min":0,"x_max":0,"o":"m 429 664 b 142 376 272 664 142 536 b 429 89 142 218 272 89 b 717 376 589 89 717 218 b 429 664 717 536 589 664 z "},"-":{"ha":861,"x_min":0,"x_max":0,"o":"m 244 479 l 244 274 l 617 274 l 617 479 z "},"–":{"ha":861,"x_min":0,"x_max":0,"o":"m 143 475 l 143 282 l 718 282 l 718 475 z "},"—":{"ha":861,"x_min":0,"x_max":0,"o":"m 0 475 l 0 282 l 861 282 l 861 475 z "},"(":{"ha":861,"x_min":0,"x_max":0,"o":"m 160 447 b 710 -225 160 113 394 -143 l 710 6 b 367 447 531 50 367 208 b 710 889 367 686 531 844 l 710 1119 b 160 447 393 1038 160 782 z "},")":{"ha":861,"x_min":0,"x_max":0,"o":"m 700 447 b 150 1119 700 782 467 1038 l 150 889 b 493 447 329 844 493 686 b 150 6 493 208 329 50 l 150 -225 b 700 447 465 -143 700 113 z "},"[":{"ha":861,"x_min":0,"x_max":0,"o":"m 388 956 l 740 956 l 740 1119 l 190 1119 l 190 -208 l 740 -208 l 740 -44 l 388 -44 z "},"]":{"ha":861,"x_min":0,"x_max":0,"o":"m 474 956 l 474 -44 l 121 -44 l 121 -208 l 671 -208 l 671 1119 l 121 1119 l 121 956 z "},"{":{"ha":861,"x_min":0,"x_max":0,"o":"m 486 879 b 549 957 486 935 507 957 l 740 957 l 740 1119 l 489 1119 b 292 914 365 1119 292 1051 l 292 664 b 186 546 292 575 247 546 l 57 546 l 57 365 l 186 365 b 292 247 247 365 292 336 l 292 -3 b 489 -208 292 -140 365 -208 l 740 -208 l 740 -46 l 549 -46 b 486 32 507 -46 486 -24 l 486 271 b 332 456 486 390 417 451 b 486 640 417 460 486 521 z "},"}":{"ha":861,"x_min":0,"x_max":0,"o":"m 375 879 l 375 640 b 529 456 375 521 444 460 b 375 271 444 451 375 390 l 375 32 b 313 -46 375 -24 354 -46 l 121 -46 l 121 -208 l 372 -208 b 569 -3 496 -208 569 -140 l 569 247 b 675 365 569 336 614 365 l 804 365 l 804 546 l 675 546 b 569 664 614 546 569 575 l 569 914 b 372 1119 569 1051 496 1119 l 121 1119 l 121 957 l 313 957 b 375 879 354 957 375 935 z "},"*":{"ha":861,"x_min":0,"x_max":0,"o":"m 368 393 l 494 393 l 494 610 l 688 500 l 751 610 l 557 721 l 751 832 l 688 940 l 494 831 l 494 1047 l 368 1047 l 368 831 l 175 940 l 110 832 l 304 721 l 110 610 l 175 500 l 368 610 z "},"†":{"ha":861,"x_min":0,"x_max":0,"o":"m 353 390 l 508 390 l 508 711 l 689 711 l 689 867 l 508 867 l 508 1047 l 353 1047 l 353 867 l 172 867 l 172 711 l 353 711 z "},"‡":{"ha":861,"x_min":0,"x_max":0,"o":"m 353 390 l 508 390 l 508 510 l 689 510 l 689 657 l 508 657 l 508 781 l 689 781 l 689 926 l 508 926 l 508 1047 l 353 1047 l 353 926 l 172 926 l 172 781 l 353 781 l 353 657 l 172 657 l 172 510 l 353 510 z "},"§":{"ha":861,"x_min":0,"x_max":0,"o":"m 135 343 b 219 143 135 256 169 194 b 382 32 267 94 328 61 b 522 -103 458 -11 522 -44 b 425 -196 522 -160 483 -196 b 319 -111 375 -196 340 -162 l 156 -203 b 425 -378 193 -300 299 -378 b 711 -112 586 -378 711 -267 b 578 111 711 -8 653 63 b 726 343 669 156 726 244 b 639 546 726 432 690 494 b 479 654 592 593 532 625 b 339 789 403 696 339 731 b 435 882 339 846 378 882 b 540 797 486 882 521 849 l 706 889 b 436 1064 668 986 563 1064 b 150 799 275 1064 150 953 b 283 575 150 694 208 624 b 135 343 192 531 135 442 z m 431 231 b 350 264 399 231 371 243 b 318 343 331 283 318 311 b 431 456 318 408 368 456 b 510 422 461 456 490 443 b 543 343 531 403 543 375 b 431 231 543 278 492 231 z "},"¶":{"ha":861,"x_min":0,"x_max":0,"o":"m 550 -354 l 701 -354 l 701 890 l 836 890 l 836 1047 l 550 1047 z m 313 -354 l 464 -354 l 464 1047 l 313 1047 b 14 783 178 1047 14 969 b 313 517 14 597 178 517 z "},"^":{"ha":861,"x_min":0,"x_max":0,"o":"m 431 1067 l 57 574 l 278 574 l 431 781 l 583 574 l 804 574 z "},"~":{"ha":861,"x_min":0,"x_max":0,"o":"m 568 533 b 513 454 568 482 544 454 b 317 539 460 454 415 539 b 138 292 206 539 138 429 l 293 292 b 347 371 293 343 317 371 b 543 288 403 371 446 288 b 724 533 654 288 724 397 z "},"_":{"ha":861,"x_min":0,"x_max":0,"o":"m 129 -89 l 129 -276 l 732 -276 l 732 -89 z "},"'":{"ha":861,"x_min":0,"x_max":0,"o":"m 325 429 l 536 642 l 536 1047 l 325 1047 z "},"\"":{"ha":861,"x_min":0,"x_max":0,"o":"m 149 429 l 360 642 l 360 1047 l 149 1047 z m 501 429 l 713 642 l 713 1047 l 501 1047 z "},"@":{"ha":861,"x_min":0,"x_max":0,"o":"m 36 -349 l 735 -349 l 822 -190 l 204 -190 l 204 889 l 654 889 l 654 533 b 506 600 628 568 578 600 b 261 340 369 600 261 488 b 506 81 261 193 369 81 b 654 147 578 81 628 113 l 654 92 l 824 92 l 824 1047 l 36 1047 z m 428 340 b 543 456 428 406 478 456 b 657 340 608 456 657 406 b 543 224 657 274 608 224 b 428 340 478 224 428 274 z "},"©":{"ha":861,"x_min":0,"x_max":0,"o":"m 840 525 b 431 1064 840 839 654 1064 b 21 525 207 1064 21 839 b 431 -15 21 213 207 -15 b 840 525 654 -15 840 213 z m 757 525 b 431 64 757 258 610 64 b 104 525 251 64 104 258 b 431 985 104 793 251 985 b 757 525 610 985 757 793 z m 364 524 b 493 694 364 621 418 694 b 583 647 525 694 560 676 l 583 829 b 453 878 543 861 501 878 b 194 524 313 878 194 719 b 453 172 194 331 313 172 b 583 219 501 172 543 189 l 583 401 b 493 356 560 372 525 356 b 364 524 418 356 364 428 z "},"®":{"ha":861,"x_min":0,"x_max":0,"o":"m 432 1064 b 100 732 250 1064 100 914 b 432 401 100 550 250 401 b 763 732 614 401 763 550 b 432 1064 763 914 614 1064 z m 432 469 b 168 732 288 469 168 588 b 432 996 168 876 288 996 b 694 732 576 996 694 876 b 432 469 694 588 576 469 z m 394 678 l 404 678 l 465 572 l 574 572 l 496 694 b 563 793 531 710 563 742 b 436 903 563 857 514 903 l 303 903 l 303 572 l 394 572 z m 394 821 l 425 821 b 468 785 451 821 468 808 b 425 749 468 764 451 749 l 394 749 z "},"™":{"ha":861,"x_min":0,"x_max":0,"o":"m 606 556 l 683 754 l 726 568 l 846 568 l 725 1083 l 606 806 l 486 1083 l 367 568 l 485 568 l 528 754 z m 18 931 l 140 931 l 140 568 l 271 568 l 271 931 l 392 931 l 392 1047 l 18 1047 z "},"#":{"ha":861,"x_min":0,"x_max":0,"o":"m 499 0 l 578 263 l 703 263 l 756 413 l 624 413 l 694 643 l 801 643 l 853 793 l 739 793 l 817 1047 l 649 1047 l 571 793 l 453 793 l 531 1047 l 363 1047 l 285 793 l 161 793 l 108 643 l 240 643 l 169 413 l 63 413 l 11 263 l 124 263 l 44 0 l 213 0 l 292 263 l 410 263 l 331 0 z m 338 413 l 408 643 l 526 643 l 456 413 z "},"°":{"ha":861,"x_min":0,"x_max":0,"o":"m 199 832 b 431 600 199 699 300 600 b 663 832 561 600 663 699 b 431 1064 663 965 561 1064 b 199 832 300 1064 199 965 z m 354 832 b 431 908 354 876 388 908 b 507 832 474 908 507 876 b 431 756 507 788 474 756 b 354 832 388 756 354 788 z "},"ƒ":{"ha":861,"x_min":0,"x_max":0,"o":"m 176 396 l 310 396 l 236 131 b 103 11 215 57 174 11 b 15 33 67 11 35 21 l 15 -151 b 125 -172 42 -165 79 -172 b 443 110 303 -172 397 -54 l 522 396 l 703 396 l 703 574 l 571 574 l 622 761 b 756 881 642 836 685 881 b 843 860 790 881 822 872 l 843 1044 b 732 1064 815 1057 779 1064 b 415 782 556 1064 460 946 l 358 574 l 176 574 z "},"€":{"ha":861,"x_min":0,"x_max":0,"o":"m 40 332 l 153 332 b 590 -17 219 128 388 -17 b 811 42 668 -17 744 3 l 811 285 b 604 183 763 224 689 183 b 371 332 503 183 418 239 l 560 332 l 596 482 l 329 482 b 328 524 328 496 328 510 b 329 568 328 539 328 554 l 618 568 l 656 718 l 372 718 b 604 864 419 810 504 864 b 811 764 689 864 763 824 l 811 1006 b 590 1064 744 1044 668 1064 b 154 718 388 1064 221 921 l 40 718 l 40 568 l 125 568 b 124 524 124 554 124 539 b 125 482 124 510 124 496 l 40 482 z "},"$":{"ha":861,"x_min":0,"x_max":0,"o":"m 821 317 b 524 610 821 514 668 569 l 524 882 b 660 772 581 864 628 826 l 789 903 b 524 1060 724 986 636 1043 l 524 1188 l 369 1188 l 369 1057 b 94 749 206 1026 94 906 b 369 468 94 564 233 507 l 369 168 b 160 332 279 189 208 247 l 15 210 b 369 -12 82 88 215 4 l 369 -156 l 524 -156 l 524 -8 b 821 317 694 26 821 151 z m 274 764 b 369 886 274 825 311 868 l 369 656 b 274 764 313 678 274 710 z m 633 304 b 524 169 633 239 592 190 l 524 424 b 633 304 588 399 633 367 z "},"¢":{"ha":861,"x_min":0,"x_max":0,"o":"m 421 -156 l 574 -156 l 574 -15 b 706 17 622 -10 668 3 l 706 215 b 574 163 671 190 626 169 l 574 535 b 704 482 626 528 669 508 l 704 681 b 574 713 667 694 621 707 l 574 846 l 421 846 l 421 700 b 131 349 254 657 131 522 b 421 -3 131 175 254 40 z m 311 349 b 421 515 311 426 353 486 l 421 182 b 311 349 353 211 311 271 z "},"£":{"ha":861,"x_min":0,"x_max":0,"o":"m 42 403 l 206 403 b 240 278 221 367 233 326 b 13 100 135 268 47 189 l 154 -11 b 282 89 183 54 226 89 b 604 -15 383 89 464 -15 b 851 164 718 -15 815 69 l 710 275 b 582 175 683 210 639 175 b 435 228 531 175 485 201 b 404 403 429 300 418 356 l 607 403 l 607 565 l 336 565 b 292 725 311 615 292 661 b 450 881 292 810 354 881 b 628 717 543 881 604 824 l 819 788 b 454 1065 771 961 646 1065 b 85 724 238 1065 85 908 b 122 565 85 660 100 611 l 42 565 z "},"¥":{"ha":861,"x_min":0,"x_max":0,"o":"m 65 274 l 324 274 l 324 0 l 536 0 l 536 274 l 796 274 l 796 440 l 538 440 l 586 533 l 796 533 l 796 701 l 674 701 l 854 1047 l 626 1047 l 431 650 l 235 1047 l 7 1047 l 188 701 l 65 701 l 65 533 l 275 533 l 322 440 l 65 440 z "},"฿":{"ha":861,"x_min":0,"x_max":0,"o":"m 636 553 b 782 774 717 586 782 660 b 511 1043 782 915 683 1019 l 511 1188 l 365 1188 l 365 1047 l 93 1047 l 93 0 l 365 0 l 365 -156 l 511 -156 l 511 1 b 832 297 717 17 832 133 b 636 553 832 428 753 519 z m 283 875 l 365 875 l 365 601 l 283 601 z m 607 738 b 511 610 607 671 569 626 l 511 867 b 607 738 569 850 607 804 z m 283 456 l 365 456 l 365 172 l 283 172 z m 635 315 b 511 175 635 244 590 189 l 511 453 b 635 315 590 439 635 386 z "},"₫":{"ha":861,"x_min":0,"x_max":0,"o":"m 379 808 l 540 808 l 540 640 b 354 725 507 688 442 725 b 51 410 185 725 51 590 b 354 94 51 229 185 94 b 540 183 442 94 506 135 l 540 108 l 735 108 l 735 808 l 818 808 l 818 968 l 735 968 l 735 1047 l 540 1047 l 540 968 l 379 968 z m 247 410 b 399 564 247 499 310 564 b 546 410 485 564 546 499 b 399 256 546 321 485 256 b 247 410 310 256 247 321 z m 65 -162 l 735 -162 l 735 0 l 65 0 z "},"₣":{"ha":861,"x_min":0,"x_max":0,"o":"m 156 0 l 375 0 l 375 190 l 571 190 l 571 353 l 375 353 l 375 439 l 782 439 l 782 625 l 375 625 l 375 861 l 792 861 l 792 1047 l 156 1047 l 156 353 l 72 353 l 72 190 l 156 190 z "},"₦":{"ha":861,"x_min":0,"x_max":0,"o":"m 32 317 l 121 317 l 121 0 l 318 0 l 318 540 l 740 -40 l 740 317 l 829 317 l 829 485 l 740 485 l 740 571 l 829 571 l 829 738 l 740 738 l 740 1047 l 543 1047 l 543 506 l 121 1088 l 121 738 l 32 738 l 32 571 l 121 571 l 121 485 l 32 485 z "},"₧":{"ha":861,"x_min":0,"x_max":0,"o":"m 319 307 l 389 307 b 761 593 608 307 732 424 l 851 593 l 851 761 l 761 761 b 389 1047 732 932 608 1047 l 115 1047 l 115 761 l 21 761 l 21 593 l 115 593 l 115 0 l 319 0 z m 319 881 l 400 881 b 571 761 493 881 549 839 l 319 761 z m 319 474 l 319 593 l 571 593 b 400 474 550 514 493 474 z "},"₱":{"ha":861,"x_min":0,"x_max":0,"o":"m 326 315 l 364 315 b 706 463 518 315 638 368 l 850 463 l 850 629 l 767 629 b 769 681 768 646 769 663 b 768 715 769 693 769 704 l 850 715 l 850 883 l 717 883 b 364 1047 651 989 526 1047 l 113 1047 l 113 883 l 21 883 l 21 715 l 113 715 l 113 629 l 21 629 l 21 463 l 113 463 l 113 0 l 326 0 z m 326 864 l 369 864 b 567 681 489 864 567 806 b 369 499 567 558 489 499 l 326 499 z "},"₽":{"ha":861,"x_min":0,"x_max":0,"o":"m 40 140 l 132 140 l 132 0 l 346 0 l 346 140 l 518 140 l 518 301 l 346 301 l 346 388 l 442 388 b 828 717 668 388 828 511 b 442 1047 828 924 668 1047 l 132 1047 l 132 560 l 40 560 l 40 388 l 132 388 l 132 301 l 40 301 z m 438 865 b 607 717 536 865 607 814 b 438 560 607 619 536 560 l 346 560 l 346 865 z "},"₹":{"ha":861,"x_min":0,"x_max":0,"o":"m 50 549 l 50 392 l 204 392 l 529 0 l 796 0 l 443 413 b 665 635 558 447 639 525 l 810 635 l 810 799 l 661 799 b 614 885 651 832 636 860 l 810 885 l 810 1047 l 50 1047 l 50 885 l 290 885 b 446 799 363 885 418 851 l 50 799 l 50 635 l 449 635 b 290 549 422 581 365 549 z "},"₺":{"ha":861,"x_min":0,"x_max":0,"o":"m 129 0 l 424 0 b 826 436 681 0 826 140 l 603 436 b 406 186 603 265 535 186 l 342 186 l 342 335 l 476 428 l 476 606 l 342 513 l 342 607 l 476 700 l 476 876 l 342 783 l 342 1047 l 129 1047 l 129 650 l 47 593 l 47 417 l 129 474 l 129 379 l 47 322 l 47 144 l 129 201 z "},"₩":{"ha":861,"x_min":0,"x_max":0,"o":"m 25 317 l 176 317 l 250 -40 l 431 592 l 611 -40 l 685 317 l 836 317 l 836 485 l 719 485 l 738 571 l 836 571 l 836 738 l 772 738 l 836 1047 l 654 1047 l 558 542 l 433 990 l 307 538 l 211 1047 l 25 1047 l 89 738 l 25 738 l 25 571 l 124 571 l 142 485 l 25 485 z "},"⁰":{"ha":861,"x_min":0,"x_max":0,"o":"m 206 758 b 431 460 206 581 304 460 b 654 758 556 460 654 581 b 431 1057 654 936 556 1057 b 206 758 304 1057 206 936 z m 354 758 b 431 915 354 846 385 915 b 507 758 476 915 507 846 b 431 601 507 671 476 601 b 354 758 385 601 354 671 z "},"¹":{"ha":861,"x_min":0,"x_max":0,"o":"m 224 469 l 656 469 l 656 599 l 517 599 l 517 1047 l 286 1047 l 204 918 l 361 918 l 361 599 l 224 599 z "},"²":{"ha":861,"x_min":0,"x_max":0,"o":"m 371 846 b 428 907 374 878 390 907 b 476 851 458 907 476 885 b 417 739 476 819 451 785 l 206 469 l 653 469 l 653 599 l 485 599 l 533 661 b 640 864 586 728 640 793 b 426 1057 640 981 558 1057 b 200 846 294 1057 213 964 z "},"³":{"ha":861,"x_min":0,"x_max":0,"o":"m 435 710 b 504 653 474 710 504 690 b 435 588 504 614 474 588 b 357 667 388 588 358 622 l 203 667 b 435 460 207 543 299 460 b 653 644 568 460 653 542 b 583 771 653 701 625 744 b 633 881 607 792 633 831 b 440 1057 633 986 561 1057 b 226 864 318 1057 238 971 l 376 864 b 435 922 379 897 400 922 b 488 872 468 922 488 901 b 433 822 488 838 461 822 l 392 822 l 392 710 z "},"⁴":{"ha":861,"x_min":0,"x_max":0,"o":"m 593 469 l 593 599 l 690 599 l 690 719 l 593 719 l 593 1047 l 422 1047 l 182 715 l 182 599 l 453 599 l 453 469 z m 324 719 l 453 906 l 453 719 z "},"⁵":{"ha":861,"x_min":0,"x_max":0,"o":"m 383 599 b 247 667 328 599 275 635 l 217 521 b 396 460 247 490 310 460 b 632 683 529 460 632 561 b 438 874 632 785 563 874 l 426 874 l 435 918 l 614 918 l 614 1047 l 326 1047 l 265 736 b 368 758 303 753 339 758 b 481 679 436 758 481 725 b 383 599 481 621 425 599 z "},"⁶":{"ha":861,"x_min":0,"x_max":0,"o":"m 657 682 b 475 888 657 792 582 875 l 597 1047 l 422 1047 l 288 871 b 204 681 226 790 204 742 b 431 460 204 556 303 460 b 657 682 561 460 657 556 z m 432 764 b 514 681 478 764 514 726 b 432 597 514 636 478 597 b 347 681 383 597 347 636 b 432 764 347 726 383 764 z "},"⁷":{"ha":861,"x_min":0,"x_max":0,"o":"m 675 1047 l 201 1047 l 201 918 l 451 918 l 232 469 l 399 469 z "},"⁸":{"ha":861,"x_min":0,"x_max":0,"o":"m 431 460 b 654 636 554 460 654 531 b 565 768 654 707 597 751 b 624 889 596 793 624 835 b 431 1057 624 990 532 1057 b 236 889 328 1057 236 990 b 294 768 236 835 264 793 b 207 636 263 751 207 707 b 431 460 207 531 306 460 z m 431 942 b 485 888 461 942 485 919 b 431 835 485 856 461 835 b 375 888 399 835 375 856 b 431 942 375 919 399 942 z m 431 707 b 497 646 469 707 497 682 b 431 585 497 610 469 585 b 363 646 392 585 363 610 b 431 707 363 682 392 707 z "},"⁹":{"ha":861,"x_min":0,"x_max":0,"o":"m 204 835 b 386 629 204 725 279 642 l 263 469 l 439 469 l 574 646 b 657 836 635 726 657 775 b 431 1057 657 961 558 1057 b 204 835 300 1057 204 961 z m 429 753 b 346 836 383 753 346 790 b 429 919 346 881 383 919 b 513 836 476 919 513 881 b 429 753 513 790 476 753 z "},"₀":{"ha":861,"x_min":0,"x_max":0,"o":"m 206 94 b 431 -204 206 -83 304 -204 b 654 94 556 -204 654 -83 b 431 393 654 272 556 393 b 206 94 304 393 206 272 z m 354 94 b 431 251 354 182 385 251 b 507 94 476 251 507 182 b 431 -62 507 7 476 -62 b 354 94 385 -62 354 7 z "},"₁":{"ha":861,"x_min":0,"x_max":0,"o":"m 224 -194 l 656 -194 l 656 -65 l 517 -65 l 517 383 l 286 383 l 204 254 l 361 254 l 361 -65 l 224 -65 z "},"₂":{"ha":861,"x_min":0,"x_max":0,"o":"m 371 182 b 428 243 374 214 390 243 b 476 188 458 243 476 221 b 417 75 476 156 451 121 l 206 -194 l 653 -194 l 653 -65 l 485 -65 l 533 -3 b 640 200 586 64 640 129 b 426 393 640 317 558 393 b 200 182 294 393 213 300 z "},"₃":{"ha":861,"x_min":0,"x_max":0,"o":"m 435 46 b 504 -11 474 46 504 26 b 435 -76 504 -50 474 -76 b 357 3 388 -76 358 -42 l 203 3 b 435 -204 207 -121 299 -204 b 653 -19 568 -204 653 -122 b 583 107 653 38 625 81 b 633 217 607 128 633 167 b 440 393 633 322 561 393 b 226 200 318 393 238 307 l 376 200 b 435 258 379 233 400 258 b 488 208 468 258 488 238 b 433 158 488 174 461 158 l 392 158 l 392 46 z "},"₄":{"ha":861,"x_min":0,"x_max":0,"o":"m 593 -194 l 593 -65 l 690 -65 l 690 56 l 593 56 l 593 383 l 422 383 l 182 51 l 182 -65 l 453 -65 l 453 -194 z m 324 56 l 453 242 l 453 56 z "},"₅":{"ha":861,"x_min":0,"x_max":0,"o":"m 383 -65 b 247 3 328 -65 275 -29 l 217 -143 b 396 -204 247 -174 310 -204 b 632 19 529 -204 632 -103 b 438 210 632 121 563 210 l 426 210 l 435 254 l 614 254 l 614 383 l 326 383 l 265 72 b 368 94 303 89 339 94 b 481 15 436 94 481 61 b 383 -65 481 -43 425 -65 z "},"₆":{"ha":861,"x_min":0,"x_max":0,"o":"m 657 18 b 475 224 657 128 582 211 l 597 383 l 422 383 l 288 207 b 204 17 226 126 204 78 b 431 -204 204 -108 303 -204 b 657 18 561 -204 657 -108 z m 432 100 b 514 17 478 100 514 63 b 432 -67 514 -28 478 -67 b 347 17 383 -67 347 -28 b 432 100 347 63 383 100 z "},"₇":{"ha":861,"x_min":0,"x_max":0,"o":"m 675 383 l 201 383 l 201 254 l 451 254 l 232 -194 l 399 -194 z "},"₈":{"ha":861,"x_min":0,"x_max":0,"o":"m 431 -204 b 654 -28 554 -204 654 -133 b 565 104 654 43 597 88 b 624 225 596 129 624 171 b 431 393 624 326 532 393 b 236 225 328 393 236 326 b 294 104 236 171 264 129 b 207 -28 263 88 207 43 b 431 -204 207 -133 306 -204 z m 431 278 b 485 224 461 278 485 256 b 431 171 485 192 461 171 b 375 224 399 171 375 192 b 431 278 375 256 399 278 z m 431 43 b 497 -18 469 43 497 18 b 431 -79 497 -54 469 -79 b 363 -18 392 -79 363 -54 b 431 43 363 18 392 43 z "},"₉":{"ha":861,"x_min":0,"x_max":0,"o":"m 204 171 b 386 -35 204 61 279 -22 l 263 -194 l 439 -194 l 574 -18 b 657 172 635 63 657 111 b 431 393 657 297 558 393 b 204 171 300 393 204 297 z m 429 89 b 346 172 383 89 346 126 b 429 256 346 217 383 256 b 513 172 476 256 513 217 b 429 89 513 126 476 89 z "},"⁄":{"ha":0,"x_min":0,"x_max":0,"o":"m -440 67 l -325 -17 l 440 982 l 325 1065 z "},"½":{"ha":1722,"x_min":0,"x_max":0,"o":"m 421 67 l 536 -17 l 1301 982 l 1186 1065 z m 200 469 l 632 469 l 632 599 l 493 599 l 493 1047 l 263 1047 l 181 918 l 338 918 l 338 599 l 200 599 z m 1232 376 b 1289 438 1235 408 1251 438 b 1338 382 1319 438 1338 415 b 1278 269 1338 350 1313 315 l 1067 0 l 1514 0 l 1514 129 l 1346 129 l 1394 192 b 1501 394 1447 258 1501 324 b 1288 588 1501 511 1419 588 b 1061 376 1156 588 1074 494 z "},"¼":{"ha":1722,"x_min":0,"x_max":0,"o":"m 440 67 l 556 -17 l 1321 982 l 1206 1065 z m 200 469 l 632 469 l 632 599 l 493 599 l 493 1047 l 263 1047 l 181 918 l 338 918 l 338 599 l 200 599 z m 1369 0 l 1369 129 l 1467 129 l 1467 250 l 1369 250 l 1369 578 l 1199 578 l 958 246 l 958 129 l 1229 129 l 1229 0 z m 1100 250 l 1229 436 l 1229 250 z "},"¾":{"ha":1722,"x_min":0,"x_max":0,"o":"m 440 67 l 556 -17 l 1321 982 l 1206 1065 z m 453 710 b 522 653 492 710 522 690 b 453 588 522 614 492 588 b 375 667 406 588 376 622 l 221 667 b 453 460 225 543 317 460 b 671 644 586 460 671 542 b 601 771 671 701 643 744 b 651 881 625 792 651 831 b 458 1057 651 986 579 1057 b 244 864 336 1057 256 971 l 394 864 b 453 922 397 897 418 922 b 506 872 486 922 506 901 b 451 822 506 838 479 822 l 410 822 l 410 710 z m 1369 0 l 1369 129 l 1467 129 l 1467 250 l 1369 250 l 1369 578 l 1199 578 l 958 246 l 958 129 l 1229 129 l 1229 0 z m 1100 250 l 1229 436 l 1229 250 z "},"⅓":{"ha":1722,"x_min":0,"x_max":0,"o":"m 421 67 l 536 -17 l 1301 982 l 1186 1065 z m 200 469 l 632 469 l 632 599 l 493 599 l 493 1047 l 263 1047 l 181 918 l 338 918 l 338 599 l 200 599 z m 1296 240 b 1365 183 1335 240 1365 221 b 1296 118 1365 144 1335 118 b 1218 197 1249 118 1219 153 l 1064 197 b 1296 -10 1068 74 1160 -10 b 1514 175 1429 -10 1514 72 b 1444 301 1514 232 1486 275 b 1494 411 1468 322 1494 361 b 1301 588 1494 517 1422 588 b 1088 394 1179 588 1099 501 l 1238 394 b 1296 453 1240 428 1261 453 b 1349 403 1329 453 1349 432 b 1294 353 1349 368 1322 353 l 1253 353 l 1253 240 z "},"⅔":{"ha":1722,"x_min":0,"x_max":0,"o":"m 421 67 l 536 -17 l 1301 982 l 1186 1065 z m 371 846 b 428 907 374 878 390 907 b 476 851 458 907 476 885 b 417 739 476 819 451 785 l 206 469 l 653 469 l 653 599 l 485 599 l 533 661 b 640 864 586 728 640 793 b 426 1057 640 981 558 1057 b 200 846 294 1057 213 964 z m 1296 240 b 1365 183 1335 240 1365 221 b 1296 118 1365 144 1335 118 b 1218 197 1249 118 1219 153 l 1064 197 b 1296 -10 1068 74 1160 -10 b 1514 175 1429 -10 1514 72 b 1444 301 1514 232 1486 275 b 1494 411 1468 322 1494 361 b 1301 588 1494 517 1422 588 b 1088 394 1179 588 1099 501 l 1238 394 b 1296 453 1240 428 1261 453 b 1349 403 1329 453 1349 432 b 1294 353 1349 368 1322 353 l 1253 353 l 1253 240 z "},"⅛":{"ha":1722,"x_min":0,"x_max":0,"o":"m 421 67 l 536 -17 l 1301 982 l 1186 1065 z m 200 469 l 632 469 l 632 599 l 493 599 l 493 1047 l 263 1047 l 181 918 l 338 918 l 338 599 l 200 599 z m 1292 -10 b 1515 167 1415 -10 1515 61 b 1426 299 1515 238 1458 282 b 1485 419 1457 324 1485 365 b 1292 588 1485 521 1393 588 b 1097 419 1189 588 1097 521 b 1156 299 1097 365 1125 324 b 1068 167 1124 282 1068 238 b 1292 -10 1068 61 1167 -10 z m 1292 472 b 1346 418 1322 472 1346 450 b 1292 365 1346 386 1322 365 b 1236 418 1260 365 1236 386 b 1292 472 1236 450 1260 472 z m 1292 238 b 1358 176 1331 238 1358 213 b 1292 115 1358 140 1331 115 b 1224 176 1253 115 1224 140 b 1292 238 1224 213 1253 238 z "},"⅜":{"ha":1722,"x_min":0,"x_max":0,"o":"m 421 67 l 536 -17 l 1301 982 l 1186 1065 z m 435 710 b 504 653 474 710 504 690 b 435 588 504 614 474 588 b 357 667 388 588 358 622 l 203 667 b 435 460 207 543 299 460 b 653 644 568 460 653 542 b 583 771 653 701 625 744 b 633 881 607 792 633 831 b 440 1057 633 986 561 1057 b 226 864 318 1057 238 971 l 376 864 b 435 922 379 897 400 922 b 488 872 468 922 488 901 b 433 822 488 838 461 822 l 392 822 l 392 710 z m 1292 -10 b 1515 167 1415 -10 1515 61 b 1426 299 1515 238 1458 282 b 1485 419 1457 324 1485 365 b 1292 588 1485 521 1393 588 b 1097 419 1189 588 1097 521 b 1156 299 1097 365 1125 324 b 1068 167 1124 282 1068 238 b 1292 -10 1068 61 1167 -10 z m 1292 472 b 1346 418 1322 472 1346 450 b 1292 365 1346 386 1322 365 b 1236 418 1260 365 1236 386 b 1292 472 1236 450 1260 472 z m 1292 238 b 1358 176 1331 238 1358 213 b 1292 115 1358 140 1331 115 b 1224 176 1253 115 1224 140 b 1292 238 1224 213 1253 238 z "},"⅝":{"ha":1722,"x_min":0,"x_max":0,"o":"m 421 67 l 536 -17 l 1301 982 l 1186 1065 z m 383 599 b 247 667 328 599 275 635 l 217 521 b 396 460 247 490 310 460 b 632 683 529 460 632 561 b 438 874 632 785 563 874 l 426 874 l 435 918 l 614 918 l 614 1047 l 326 1047 l 265 736 b 368 758 303 753 339 758 b 481 679 436 758 481 725 b 383 599 481 621 425 599 z m 1292 -10 b 1515 167 1415 -10 1515 61 b 1426 299 1515 238 1458 282 b 1485 419 1457 324 1485 365 b 1292 588 1485 521 1393 588 b 1097 419 1189 588 1097 521 b 1156 299 1097 365 1125 324 b 1068 167 1124 282 1068 238 b 1292 -10 1068 61 1167 -10 z m 1292 472 b 1346 418 1322 472 1346 450 b 1292 365 1346 386 1322 365 b 1236 418 1260 365 1236 386 b 1292 472 1236 450 1260 472 z m 1292 238 b 1358 176 1331 238 1358 213 b 1292 115 1358 140 1331 115 b 1224 176 1253 115 1224 140 b 1292 238 1224 213 1253 238 z "},"⅞":{"ha":1722,"x_min":0,"x_max":0,"o":"m 400 67 l 515 -17 l 1281 982 l 1165 1065 z m 756 1047 l 282 1047 l 282 918 l 532 918 l 313 469 l 479 469 z m 1271 -10 b 1494 167 1394 -10 1494 61 b 1406 299 1494 238 1438 282 b 1464 419 1436 324 1464 365 b 1271 588 1464 521 1372 588 b 1076 419 1168 588 1076 521 b 1135 299 1076 365 1104 324 b 1047 167 1103 282 1047 238 b 1271 -10 1047 61 1146 -10 z m 1271 472 b 1325 418 1301 472 1325 450 b 1271 365 1325 386 1301 365 b 1215 418 1239 365 1215 386 b 1271 472 1215 450 1239 472 z m 1271 238 b 1338 176 1310 238 1338 213 b 1271 115 1338 140 1310 115 b 1203 176 1232 115 1203 140 b 1271 238 1203 213 1232 238 z "},"%":{"ha":861,"x_min":0,"x_max":0,"o":"m 31 64 l 154 -17 l 831 983 l 707 1064 z m 432 858 b 225 1064 432 975 340 1064 b 18 858 110 1064 18 975 b 225 651 18 740 110 651 b 432 858 340 651 432 740 z m 149 858 b 225 935 149 901 182 935 b 301 858 268 935 301 901 b 225 782 301 814 268 782 b 149 858 182 782 149 814 z m 429 189 b 636 -17 429 72 521 -17 b 843 189 751 -17 843 72 b 636 396 843 307 751 396 b 429 189 521 396 429 307 z m 713 189 b 636 113 713 146 679 113 b 560 189 593 113 560 146 b 636 265 560 233 593 265 b 713 189 679 265 713 233 z "},"+":{"ha":861,"x_min":0,"x_max":0,"o":"m 801 407 l 801 575 l 514 575 l 514 861 l 347 861 l 347 575 l 61 575 l 61 407 l 347 407 l 347 121 l 514 121 l 514 407 z "},"−":{"ha":861,"x_min":0,"x_max":0,"o":"m 61 407 l 801 407 l 801 575 l 61 575 z "},"×":{"ha":861,"x_min":0,"x_max":0,"o":"m 314 490 l 88 264 l 206 146 l 431 372 l 656 146 l 774 265 l 549 490 l 774 717 l 656 833 l 431 608 l 206 833 l 88 717 z "},"÷":{"ha":861,"x_min":0,"x_max":0,"o":"m 431 671 b 556 793 499 671 556 724 b 431 917 556 863 499 917 b 307 793 363 917 307 863 b 431 671 307 724 363 671 z m 60 407 l 801 407 l 801 575 l 60 575 z m 431 65 b 556 188 499 65 556 119 b 431 311 556 257 499 311 b 307 188 363 311 307 257 b 431 65 307 119 363 65 z "},"=":{"ha":861,"x_min":0,"x_max":0,"o":"m 65 569 l 794 569 l 794 724 l 65 724 z m 65 261 l 794 261 l 794 414 l 65 414 z "},"<":{"ha":861,"x_min":0,"x_max":0,"o":"m 74 488 l 788 68 l 788 268 l 400 488 l 788 708 l 788 910 z "},">":{"ha":861,"x_min":0,"x_max":0,"o":"m 788 488 l 74 910 l 74 708 l 461 488 l 74 268 l 74 68 z "},"̀":{"ha":0,"x_min":0,"x_max":0,"o":"m 204 810 l 14 1076 l -203 1076 l -14 810 z "},"́":{"ha":0,"x_min":0,"x_max":0,"o":"m -203 810 l 15 810 l 204 1076 l -12 1076 z "},"̂":{"ha":0,"x_min":0,"x_max":0,"o":"m 0 1122 l -290 806 l -100 806 l 0 915 l 100 806 l 290 806 z "},"̃":{"ha":0,"x_min":0,"x_max":0,"o":"m 138 1069 b 82 992 138 1018 114 992 b -114 1075 29 992 -15 1075 b -293 829 -225 1075 -293 967 l -137 829 b -83 908 -137 881 -114 908 b 113 825 -28 908 15 825 b 293 1069 224 825 293 933 z "},"̄":{"ha":0,"x_min":0,"x_max":0,"o":"m -236 861 l 236 861 l 236 1029 l -236 1029 z "},"̆":{"ha":0,"x_min":0,"x_max":0,"o":"m 0 824 b 253 1076 135 824 250 919 l 82 1076 b 0 976 79 1017 51 976 b -83 1076 -51 976 -81 1017 l -253 1076 b 0 824 -250 919 -135 824 z "},"̇":{"ha":0,"x_min":0,"x_max":0,"o":"m 0 832 b 139 968 76 832 139 892 b 0 1107 139 1046 76 1107 b -139 968 -76 1107 -139 1046 b 0 832 -139 892 -76 832 z "},"̈":{"ha":0,"x_min":0,"x_max":0,"o":"m -168 842 b -33 974 -94 842 -33 900 b -168 1107 -33 1047 -94 1107 b -301 974 -240 1107 -301 1047 b -168 842 -301 900 -240 842 z m 168 842 b 301 974 240 842 301 900 b 168 1107 301 1047 240 1107 b 33 974 94 1107 33 1047 b 168 842 33 900 94 842 z "},"̊":{"ha":0,"x_min":0,"x_max":0,"o":"m -229 1007 b 0 781 -229 879 -126 781 b 229 1007 126 781 229 879 b 0 1235 229 1135 126 1235 b -229 1007 -126 1235 -229 1135 z m 0 932 b -75 1007 -42 932 -75 965 b 0 1082 -75 1050 -42 1082 b 75 1007 42 1082 75 1050 b 0 932 75 965 42 932 z "},"̋":{"ha":0,"x_min":0,"x_max":0,"o":"m -337 810 l -140 810 l 47 1076 l -150 1076 z m -47 810 l 150 810 l 338 1076 l 140 1076 z "},"̌":{"ha":0,"x_min":0,"x_max":0,"o":"m 0 783 l 290 1100 l 100 1100 l 0 990 l -100 1100 l -290 1100 z "},"̒":{"ha":0,"x_min":0,"x_max":0,"o":"m -183 806 l -7 806 l -7 936 l 185 936 l 185 1096 l -183 1096 z "},"̦":{"ha":0,"x_min":0,"x_max":0,"o":"m 185 -60 l 8 -60 l 8 -190 l -183 -190 l -183 -350 l 185 -350 z "},"̧":{"ha":0,"x_min":0,"x_max":0,"o":"m -197 -349 l 19 -349 l 197 -100 l -19 -100 z "},"̨":{"ha":0,"x_min":0,"x_max":0,"o":"m -56 14 l -115 -50 b -187 -204 -165 -99 -187 -150 b -11 -364 -187 -301 -114 -364 b 188 -168 104 -364 178 -285 l 44 -168 b 1 -215 40 -197 25 -215 b -37 -174 -19 -215 -37 -200 b -7 -112 -37 -153 -28 -135 l 99 0 z "}}}
